<svg width="63" height="20" viewBox="0 0 63 20" fill="none" xmlns="http://www.w3.org/2000/svg">
<path d="M40.8663 5C40.9243 5.82428 40.9776 6.60977 41.0502 7.60861C42.3908 7.40496 43.8088 6.77463 44.9751 8.00135C45.8221 8.88867 45.9866 9.94084 45.9431 11.1094C45.8511 13.7131 44.4379 14.8817 41.8681 14.3241C41.3545 14.1736 40.8087 14.1736 40.2952 14.3241C39.3611 14.6198 38.9933 14.1544 39.003 13.2234C39.0272 11.0609 39.0417 8.90321 39.003 6.74069C38.9739 5.48487 39.7289 5.14061 40.8663 5ZM40.8663 10.93C41.0066 12.0258 41.1808 13.1458 42.5989 13.0198C44.0169 12.8937 44.012 11.7543 43.9975 10.7021C43.983 9.64991 43.6346 8.7626 42.4295 8.7626C41.0163 8.76745 40.9776 9.94084 40.8614 10.93H40.8663Z" fill="#3617CE"/>
<path d="M37.5947 11.6379C37.2994 12.4137 38.0496 14.2805 37.2317 14.2174C35.3926 14.0671 33.4809 15.2696 31.7386 14.0526C31.4339 13.8484 31.1979 13.5567 31.0615 13.2158C30.925 12.8749 30.8945 12.5007 30.974 12.1422C31.153 11.1385 31.908 10.8136 32.7598 10.4257C33.6116 10.0378 35.7265 10.6827 35.2668 9.18447C34.7828 7.60379 33.5342 9.18447 32.6195 9.52873C32.4374 9.58576 32.2447 9.60055 32.056 9.57199C31.8674 9.54343 31.6877 9.47226 31.5305 9.36387C31.1143 8.95658 31.4144 8.46201 31.7677 8.11775C33.0212 6.93952 34.5795 7.08983 36.0653 7.42439C37.4059 7.71046 37.6818 8.81597 37.5995 10.0475C37.5705 10.5033 37.5947 10.9882 37.5947 11.6379ZM35.6152 12.0695C35.7169 11.3373 35.3974 11.0997 34.8167 11.1918C34.052 11.3179 33.1421 11.3518 32.9486 12.2973C32.8082 12.9859 33.4325 13.2671 33.9939 13.2671C34.1792 13.298 34.3688 13.2913 34.5515 13.2475C34.7342 13.2036 34.9062 13.1235 35.0574 13.0118C35.2086 12.9001 35.3359 12.7592 35.4317 12.5973C35.5275 12.4354 35.5899 12.2559 35.6152 12.0695Z" fill="#3617CE"/>
<path d="M56.8905 12.1228C56.2468 14.4016 54.7126 14.7071 53.0187 14.4841C51.3249 14.261 50.3763 13.1022 50.2021 11.3809C50.0278 9.65961 50.6521 8.15166 52.3509 7.50193C53.0117 7.18786 53.7587 7.10507 54.4721 7.26683C55.1855 7.42859 55.8241 7.82554 56.2855 8.39409C56.5963 8.7135 56.8169 9.10978 56.9249 9.5425C57.0329 9.97522 57.0243 10.4289 56.9002 10.8572C56.5904 11.7882 55.6612 11.2694 55.0079 11.3954C54.1125 11.57 53.072 11.0124 52.3267 11.8173C52.2396 11.9046 52.4525 12.4379 52.6606 12.6125C53.6866 13.4901 54.5578 12.9131 55.4579 12.2973C55.7435 12.1131 56.2129 12.1955 56.8905 12.1228ZM54.9982 9.96992C54.9304 9.08261 54.4561 8.66562 53.6043 8.7335C52.8494 8.79654 52.2492 9.08261 52.3218 10.0378C53.2064 10.231 54.1245 10.2077 54.9982 9.96992Z" fill="#3617CE"/>
<path d="M27.6394 7.26428C28.0443 7.35842 28.4396 7.4899 28.8203 7.65703C29.6624 8.06432 30.49 8.8789 29.977 9.67894C29.464 10.479 28.588 9.90198 27.9879 9.19407C27.8725 9.02405 27.7167 8.88553 27.5344 8.79105C27.3522 8.69657 27.1493 8.6491 26.9441 8.65296C26.739 8.65681 26.538 8.71185 26.3594 8.81311C26.1808 8.91436 26.0302 9.05863 25.9213 9.23286C25.5333 9.70177 25.321 10.2917 25.321 10.9008C25.321 11.5099 25.5333 12.0999 25.9213 12.5688C26.5166 13.3203 27.3732 13.2621 27.9782 12.496C28.5832 11.7299 29.4301 11.1578 29.9141 11.8609C30.5529 12.7724 29.614 13.6306 28.7622 14.0767C27.3103 14.838 25.7665 14.8234 24.4985 13.6791C23.2305 12.5348 23.0466 11.0317 23.6273 9.47045C24.242 7.83158 25.4906 7.14307 27.6394 7.26428Z" fill="#3617CE"/>
<path d="M49.1809 5V13.1167C49.1809 13.781 49.147 14.392 48.2129 14.4259C47.2789 14.4598 47.2111 13.8634 47.2111 13.1846C47.2111 11.0366 47.2111 8.88867 47.2111 6.73584C47.1821 5.48487 47.9419 5.12607 49.1809 5Z" fill="#3617CE"/>
<path d="M13.7302 14.615H13.6963C13.3485 14.664 12.9973 14.6851 12.6461 14.678C11.1942 14.678 10.5215 14.1931 10.5215 13.044V9.36381H9.46158V7.99647H10.5215V7.05582L12.4815 6.08608V8.02556H13.7302V9.36381H12.4815V12.4427C12.4815 12.9858 12.5929 13.0973 13.1397 13.0973C13.3153 13.1029 13.4909 13.0866 13.6624 13.0488H13.7302V14.615ZM18.7538 7.99647H20.7284L18.4973 14.6053H16.3388L14.0786 7.99647H16.15L17.4519 12.3603L18.7538 7.99647ZM4.8784 12.53H2.17786V10.8427H4.8784C4.98899 10.8427 5.09849 10.8645 5.20066 10.9069C5.30283 10.9493 5.39566 11.0114 5.47386 11.0898C5.55205 11.1681 5.61408 11.2611 5.6564 11.3635C5.69872 11.4658 5.7205 11.5755 5.7205 11.6863C5.7205 11.7971 5.69872 11.9068 5.6564 12.0092C5.61408 12.1116 5.55205 12.2046 5.47386 12.2829C5.39566 12.3613 5.30283 12.4234 5.20066 12.4658C5.09849 12.5082 4.98899 12.53 4.8784 12.53ZM7.04658 9.81959H7.02238V9.79534C7.29134 9.5093 7.49069 9.16485 7.60486 8.78889C7.71904 8.41293 7.74495 8.01562 7.68057 7.62797C7.56808 7.03909 7.25435 6.50786 6.79331 6.1256C6.33227 5.74333 5.75271 5.53391 5.15426 5.53333H0V7.60372H4.79128C4.98796 7.61924 5.17156 7.70847 5.30548 7.85361C5.43939 7.99876 5.51376 8.18914 5.51376 8.38679C5.51376 8.58444 5.43939 8.77483 5.30548 8.91997C5.17156 9.06511 4.98796 9.15434 4.79128 9.16986H2.17786V8.07405L0 9.16986V14.6053H5.32365C5.91277 14.6051 6.48584 14.413 6.9564 14.0578C7.42696 13.7027 7.76947 13.2039 7.93224 12.6367C8.00378 12.3926 8.03964 12.1395 8.03871 11.8851C8.02805 11.4888 7.93268 11.0993 7.75903 10.743C7.58537 10.3866 7.33748 10.0718 7.03206 9.81959" fill="#3617CE"/>
</svg>
