<svg width="52" height="5" viewBox="0 0 52 20" fill="none" xmlns="http://www.w3.org/2000/svg" preserveAspectRatio="xMidYMid meet">
<g clip-path="url(#clip0_1062_6975)">
<path d="M6.49318 7.4704C6.14397 7.25519 5.86265 7.13842 5.115 7.13842H3.71957V13.4318H5.13153C5.52996 13.4318 5.84576 13.3991 6.21043 13.2166C7.58897 12.552 7.55591 10.4434 7.55591 10.2605C7.55591 10.161 7.58901 8.18463 6.49318 7.4704ZM11.1099 12.0371C10.9273 12.8017 10.3292 15.1431 7.85447 15.8569C6.9085 16.139 5.84576 16.1224 4.88183 16.1224H0V4.39824H3.98615C4.50028 4.39824 5.03165 4.41515 5.54685 4.43093C7.10717 4.49774 8.53637 4.64686 9.71443 5.77641C10.479 6.52443 11.2924 7.83577 11.2924 10.2102C11.2924 11.0736 11.1763 11.7217 11.1099 12.0371Z" fill="#01B1C9"/>
<path d="M25.9346 4.36554H29.3552V16.1228H25.9346V4.36554Z" fill="#01B1C9"/>
<path d="M52 13.5809V16.1242H42.6301V4.39931H52V6.97136H46.3529V8.99013H51.5477V11.5334H46.3346V13.5809H52Z" fill="#01B1C9"/>
<path d="M41.8738 4.39931L37.9053 16.1242H34.0345L30.1162 4.39931H33.9005L35.995 11.5913L38.068 4.39931H41.8738Z" fill="#01B1C9"/>
<path d="M29.3567 3.41886H25.9342V0C27.8226 0 29.3567 1.53051 29.3567 3.41886Z" fill="#01B1C9"/>
<path d="M24.8995 13.1685V16.1242H16.2493V4.39931H19.9541V13.1685H24.8995Z" fill="#01B1C9"/>
<path d="M11.9045 4.39931H15.327C15.327 6.28766 13.7965 7.81817 11.9045 7.81817V4.39931Z" fill="#01B1C9"/>
</g>
<defs>
<clipPath id="clip0_1062_6975">
<rect width="52" height="20" fill="white"/>
</clipPath>
</defs>
</svg>
