<svg width="112" height="20" viewBox="0 0 112 20" fill="none" xmlns="http://www.w3.org/2000/svg">
<path d="M8.57817e-05 10.2327C0.00152734 11.3143 0.217292 12.3848 0.634912 13.3825C1.05253 14.3801 1.66373 15.2851 2.43318 16.0452C3.20263 16.8053 4.11507 17.4053 5.11779 17.8106C6.12051 18.216 7.19361 18.4186 8.2751 18.4067C10.4508 18.3994 12.5344 17.5281 14.0676 15.9845C15.6009 14.4408 16.4581 12.3514 16.4508 10.1757C16.4434 8.00005 15.5721 5.91641 14.0285 4.38318C12.4849 2.84994 10.3954 1.9927 8.21972 2.00005C7.1383 1.99681 6.06693 2.20764 5.06737 2.62039C4.0678 3.03313 3.15981 3.63963 2.39573 4.40492C1.63165 5.17021 1.0266 6.07916 0.615434 7.07938C0.204272 8.07959 -0.00486199 9.1513 8.57817e-05 10.2327Z" fill="white"/>
<path d="M37.6423 8.13017C37.6194 7.74001 37.515 7.35898 37.3358 7.01169C37.1565 6.66439 36.9064 6.35856 36.6016 6.11394C35.5332 5.23774 34.2694 5.04231 32.9405 5.09442C30.8509 5.17748 29.2842 6.39732 28.7061 8.40377C28.3647 9.63662 28.3715 10.9399 28.7256 12.1691C29.2989 14.2977 30.8249 15.4264 33.03 15.3075C33.5368 15.2967 34.034 15.1667 34.4813 14.9282C34.9286 14.6897 35.3135 14.3493 35.6049 13.9346L35.7335 15.0209H37.6977V9.73273H33.6082V11.1578L35.4893 11.2539C35.5072 12.4639 34.9095 13.3075 33.9469 13.547C33.4708 13.6775 32.9635 13.6308 32.5192 13.4154C32.075 13.2 31.7241 12.8307 31.5317 12.376C31.2074 11.7107 31.0388 10.9802 31.0388 10.24C31.0388 9.49988 31.2074 8.76943 31.5317 8.10411C31.7829 7.64935 32.1726 7.28651 32.6441 7.06831C33.5838 6.61881 34.3118 6.97385 35.1228 8.13017H37.6423Z" fill="#767B7D"/>
<path d="M20.8464 5.37289V15.0094H27.7192V13.0746H23.2584V5.37289H20.8464Z" fill="#767B7D"/>
<path d="M8.57817e-05 10.2327C-0.00486199 9.1513 0.204272 8.07959 0.615434 7.07938C1.0266 6.07916 1.63165 5.17021 2.39573 4.40492C3.15981 3.63963 4.0678 3.03313 5.06737 2.62039C6.06693 2.20764 7.1383 1.99681 8.21972 2.00005C10.3954 1.9927 12.4849 2.84994 14.0285 4.38318C15.5721 5.91641 16.4434 8.00005 16.4508 10.1757C16.4581 12.3514 15.6009 14.4408 14.0676 15.9845C12.5344 17.5281 10.4508 18.3994 8.2751 18.4067C7.19361 18.4186 6.12051 18.216 5.11779 17.8106C4.11507 17.4053 3.20263 16.8053 2.43318 16.0452C1.66373 15.2851 1.05253 14.3801 0.634912 13.3825C0.217292 12.3848 0.00152734 11.3143 8.57817e-05 10.2327ZM14.4606 10.5747C14.4899 13.5062 11.7848 16.2374 8.72297 16.4378C7.11623 16.5531 5.52619 16.0498 4.27844 15.031C3.0307 14.0121 2.21967 12.5548 2.01143 10.9574C1.6401 8.08294 3.60585 4.01953 8.53893 3.89576V3.28991C5.93314 2.98048 3.03094 4.77521 1.8616 7.36146C1.25402 8.70971 1.09478 10.2173 1.40726 11.6627C1.71974 13.1081 2.48747 14.4153 3.5977 15.3922C4.71308 16.3837 6.11565 16.9937 7.60149 17.1334C9.08734 17.2731 10.579 16.9353 11.8597 16.169C13.9769 14.9068 15.485 12.2799 15.1593 9.91188H10.218L10.275 10.578L14.4606 10.5747ZM7.93309 6.58135V13.8124H10.2441V13.1431H8.56499V6.58135H7.93309ZM6.61879 7.56829C6.61302 7.30364 6.50487 7.05153 6.31706 6.86497C6.12926 6.6784 5.87643 6.57193 5.61174 6.56792C5.34706 6.56391 5.09112 6.66269 4.89776 6.84348C4.70439 7.02427 4.58865 7.27299 4.57488 7.53735C4.57466 7.67359 4.60128 7.80853 4.65322 7.93448C4.70516 8.06043 4.7814 8.17492 4.87758 8.2714C4.97376 8.36789 5.08801 8.44448 5.21379 8.49682C5.33958 8.54915 5.47444 8.57619 5.61068 8.57641C5.8747 8.56596 6.1251 8.4564 6.31194 8.26956C6.49878 8.08272 6.60835 7.83232 6.61879 7.56829Z" fill="#C40853"/>
<path d="M37.6423 8.13017H35.131C34.3167 6.97385 33.592 6.61881 32.6522 7.06831C32.1807 7.28652 31.7911 7.64935 31.5399 8.10411C31.2156 8.76944 31.047 9.49988 31.047 10.24C31.047 10.9802 31.2156 11.7107 31.5399 12.376C31.7323 12.8307 32.0832 13.2 32.5274 13.4154C32.9717 13.6308 33.479 13.6775 33.9551 13.547C34.9176 13.3076 35.5153 12.4639 35.4974 11.2539L33.6164 11.1578V9.73273H37.7091V15.029H35.7368L35.6082 13.9427C35.3168 14.3575 34.9319 14.6979 34.4846 14.9364C34.0373 15.1749 33.5401 15.3048 33.0333 15.3156C30.8282 15.428 29.3022 14.3059 28.7289 12.1773C28.3748 10.9481 28.368 9.64477 28.7094 8.41192C29.2843 6.41035 30.851 5.18563 32.9438 5.10257C34.2727 5.05045 35.5365 5.24589 36.6049 6.12209C36.9081 6.36611 37.157 6.67078 37.3357 7.01657C37.5143 7.36237 37.6188 7.74167 37.6423 8.13017Z" fill="#767B7D"/>
<path d="M20.8464 5.37289H23.26V13.0746H27.7192V15.0094H20.8464V5.37289Z" fill="#767B7D"/>
<path d="M14.4606 10.5747H10.2751L10.2181 9.90859H15.1593C15.485 12.2766 13.9834 14.9036 11.8597 16.1657C10.5794 16.9324 9.08792 17.2708 7.60208 17.1317C6.11624 16.9926 4.7135 16.3832 3.59775 15.3922C2.48861 14.4145 1.72213 13.1069 1.41083 11.6615C1.09954 10.2161 1.25982 8.70902 1.86816 7.36143C3.03099 4.77519 5.9397 2.98045 8.54549 3.28989V3.89573C3.60589 4.01951 1.64015 8.08291 2.01147 10.9574C2.22085 12.5539 3.03237 14.01 4.27999 15.0278C5.52761 16.0457 7.11702 16.5483 8.72301 16.4328C11.7848 16.2374 14.4948 13.503 14.4606 10.5747Z" fill="white"/>
<path d="M7.93311 6.58136H8.56501V13.1431H10.2441V13.8124H7.93311V6.58136Z" fill="white"/>
<path d="M6.61887 7.56829C6.60802 7.83203 6.49828 8.08202 6.31148 8.26852C6.12468 8.45502 5.87451 8.56436 5.61075 8.57477C5.33589 8.57434 5.07243 8.46485 4.87823 8.27034C4.68403 8.07583 4.57495 7.81221 4.57495 7.53734C4.58885 7.27293 4.70475 7.02421 4.89828 6.8435C5.0918 6.66279 5.34787 6.56418 5.61261 6.5684C5.87735 6.57262 6.13015 6.67934 6.31781 6.86613C6.50548 7.05291 6.6134 7.3052 6.61887 7.56992V7.56829Z" fill="white"/>
<path d="M47.282 14.7502V10.4241H43.1748V14.7502H41V5.05917H43.1748V8.75411H47.282V5.05917H49.4639V14.7502H47.282Z" fill="#767B7D"/>
<path d="M57.326 12.6463C57.2737 13.0714 57.0336 13.5032 56.6058 13.9415C55.9403 14.6384 55.0086 14.9869 53.8106 14.9869C52.8219 14.9869 51.9496 14.6932 51.1937 14.1059C50.4379 13.5185 50.06 12.563 50.06 11.2393C50.06 9.9989 50.3999 9.04778 51.0797 8.38593C51.7642 7.72409 52.6507 7.39316 53.7393 7.39316C54.3858 7.39316 54.9682 7.50493 55.4863 7.72847C56.0044 7.95201 56.4323 8.30484 56.7698 8.78698C57.074 9.21214 57.2713 9.70524 57.3616 10.2663C57.4139 10.595 57.4353 11.0684 57.4258 11.6864H52.1064C52.135 12.4052 52.3798 12.9093 52.8409 13.1986C53.1214 13.3783 53.4589 13.4681 53.8534 13.4681C54.2717 13.4681 54.6116 13.3585 54.8731 13.1394C55.0157 13.021 55.1417 12.8567 55.251 12.6463H57.326ZM55.3152 10.4504C55.2819 9.95507 55.1179 9.58032 54.8232 9.3261C54.5332 9.0675 54.1719 8.9382 53.7393 8.9382C53.2687 8.9382 52.9027 9.07407 52.6412 9.34583C52.3845 9.61758 52.2229 9.98575 52.1564 10.4504H55.3152Z" fill="#767B7D"/>
<path d="M58.1146 5.05917H60.1468V14.7502H58.1146V5.05917Z" fill="#767B7D"/>
<path d="M61.4488 5.05917H63.481V14.7502H61.4488V5.05917Z" fill="#767B7D"/>
<path d="M71.2219 8.49112C71.8779 9.2494 72.2059 10.1457 72.2059 11.1801C72.2059 12.2321 71.8779 13.1328 71.2219 13.8823C70.5659 14.6274 69.57 15 68.2342 15C66.8984 15 65.9025 14.6274 65.2465 13.8823C64.5905 13.1328 64.2625 12.2321 64.2625 11.1801C64.2625 10.1457 64.5905 9.2494 65.2465 8.49112C65.9025 7.73285 66.8984 7.35371 68.2342 7.35371C69.57 7.35371 70.5659 7.73285 71.2219 8.49112ZM68.2271 8.9382C67.6328 8.9382 67.1741 9.13325 66.8509 9.52334C66.5324 9.90905 66.3731 10.4613 66.3731 11.1801C66.3731 11.899 66.5324 12.4534 66.8509 12.8435C67.1741 13.2336 67.6328 13.4287 68.2271 13.4287C68.8213 13.4287 69.2776 13.2336 69.5961 12.8435C69.9146 12.4534 70.0739 11.899 70.0739 11.1801C70.0739 10.4613 69.9146 9.90905 69.5961 9.52334C69.2776 9.13325 68.8213 8.9382 68.2271 8.9382Z" fill="#767B7D"/>
<path d="M72.3242 5.05917H74.6702L76.9519 12.4162L79.2551 5.05917H81.5368L77.9502 14.7502H75.8752L72.3242 5.05917Z" fill="#767B7D"/>
<path d="M83.7801 7.58383V14.7502H81.7194V7.58383H83.7801ZM83.7801 5V6.72913H81.7194V5H83.7801Z" fill="#767B7D"/>
<path d="M90.3801 7.91256C90.9885 8.27197 91.3379 8.88998 91.4282 9.7666H89.396C89.3675 9.52553 89.2938 9.33487 89.175 9.19461C88.9516 8.94039 88.5713 8.81328 88.0341 8.81328C87.592 8.81328 87.2759 8.87684 87.0858 9.00394C86.9004 9.13105 86.8077 9.28008 86.8077 9.45102C86.8077 9.66579 86.9075 9.82139 87.1072 9.91782C87.3068 10.0186 88.0127 10.1918 89.2249 10.4372C90.033 10.6125 90.6391 10.8777 91.0432 11.2327C91.4425 11.5922 91.6422 12.0414 91.6422 12.5805C91.6422 13.2906 91.3546 13.8714 90.7794 14.3228C90.2089 14.7699 89.3247 14.9934 88.1268 14.9934C86.9051 14.9934 86.0019 14.7567 85.4172 14.2834C84.8373 13.8056 84.5473 13.1986 84.5473 12.4622H86.608C86.6508 12.7953 86.7435 13.032 86.8861 13.1723C87.1381 13.4221 87.6039 13.547 88.2837 13.547C88.683 13.547 88.9991 13.4922 89.232 13.3826C89.4697 13.2731 89.5886 13.1087 89.5886 12.8895C89.5886 12.6792 89.4935 12.5192 89.3034 12.4096C89.1132 12.3 88.4073 12.1115 87.1856 11.8442C86.3062 11.6426 85.6858 11.3905 85.3245 11.0881C84.9633 10.7901 84.7826 10.3605 84.7826 9.79947C84.7826 9.13763 85.0631 8.57002 85.624 8.09665C86.1897 7.61889 86.9836 7.38001 88.0056 7.38001C88.9753 7.38001 89.7668 7.55753 90.3801 7.91256Z" fill="#767B7D"/>
<path d="M94.5129 7.58383V14.7502H92.4522V7.58383H94.5129ZM94.5129 5V6.72913H92.4522V5H94.5129Z" fill="#767B7D"/>
<path d="M102.239 8.49112C102.895 9.2494 103.223 10.1457 103.223 11.1801C103.223 12.2321 102.895 13.1328 102.239 13.8823C101.583 14.6274 100.588 15 99.2518 15C97.916 15 96.9201 14.6274 96.2641 13.8823C95.6081 13.1328 95.2801 12.2321 95.2801 11.1801C95.2801 10.1457 95.6081 9.2494 96.2641 8.49112C96.9201 7.73285 97.916 7.35371 99.2518 7.35371C100.588 7.35371 101.583 7.73285 102.239 8.49112ZM99.2447 8.9382C98.6505 8.9382 98.1917 9.13325 97.8685 9.52334C97.55 9.90905 97.3908 10.4613 97.3908 11.1801C97.3908 11.899 97.55 12.4534 97.8685 12.8435C98.1917 13.2336 98.6505 13.4287 99.2447 13.4287C99.8389 13.4287 100.295 13.2336 100.614 12.8435C100.932 12.4534 101.091 11.899 101.091 11.1801C101.091 10.4613 100.932 9.90905 100.614 9.52334C100.295 9.13325 99.8389 8.9382 99.2447 8.9382Z" fill="#767B7D"/>
<path d="M107.613 8.97107C106.924 8.97107 106.451 9.24063 106.194 9.77975C106.061 10.0647 105.994 10.4284 105.994 10.8711V14.7502H103.969V7.59698H105.93V8.64234C106.192 8.27416 106.439 8.00899 106.672 7.84681C107.09 7.55753 107.62 7.41289 108.262 7.41289C109.065 7.41289 109.721 7.60793 110.23 7.99803C110.743 8.38374 111 9.02586 111 9.92439V14.7502H108.918V10.3912C108.918 10.0142 108.863 9.72496 108.754 9.52334C108.554 9.15516 108.174 8.97107 107.613 8.97107Z" fill="#767B7D"/>
</svg>
