<svg width="15" height="5" viewBox="0 0 15 20" fill="none" xmlns="http://www.w3.org/2000/svg" preserveAspectRatio="xMidYMid meet">
<path d="M7.1624 14.2199L4.78812 11.2972L8.23857 7.04881H6.35376C5.50959 7.04881 4.93094 7.30562 4.418 7.90774L2.60024 10.1432V4H0.775781C0.56973 4.00053 0.372311 4.08281 0.226862 4.22876C0.0814131 4.37471 -0.000178028 4.57241 2.91677e-07 4.77846V16.2402H1.82446C2.03051 16.2396 2.22793 16.1574 2.37338 16.0114C2.51883 15.8655 2.60042 15.6678 2.60024 15.4617V12.4129L4.07537 14.2233L5.3319 15.7708C5.44055 15.9148 5.58103 16.0318 5.74236 16.1125C5.90369 16.1932 6.0815 16.2355 6.2619 16.2362H8.80984L7.1624 14.2199Z" fill="url(#paint0_linear_579_5440)"/>
<path d="M8.16749 15.856C8.01797 15.6937 7.42993 14.922 6.69907 14.055C5.7275 12.9091 4.73514 11.5955 4.48639 11.3059C4.86589 10.8365 7.34142 7.79174 7.63779 7.431L7.76719 7.2788H6.25586C5.94533 7.28546 5.63943 7.35551 5.35694 7.48465C5.07445 7.61378 4.82133 7.79929 4.61311 8.02977L2.44468 10.6964C2.44082 10.7008 2.4361 10.7044 2.43079 10.707C2.42548 10.7095 2.41971 10.7109 2.41384 10.7111C2.40832 10.7111 2.40286 10.71 2.39777 10.7079C2.39268 10.7058 2.38807 10.7027 2.3842 10.6987C2.38033 10.6948 2.37728 10.6901 2.37523 10.685C2.37318 10.6799 2.37218 10.6744 2.37226 10.6689V4.23199H0.776449C0.704245 4.23226 0.632801 4.24674 0.566195 4.27462C0.499588 4.30249 0.439125 4.34321 0.388256 4.39445C0.337387 4.4457 0.29711 4.50646 0.269723 4.57326C0.242336 4.64007 0.228377 4.71162 0.228641 4.78383V16.0135H1.82446C1.97022 16.0128 2.10976 15.9543 2.21245 15.8509C2.31515 15.7474 2.37262 15.6075 2.37226 15.4617V11.8296C2.37226 11.8185 2.37664 11.808 2.38444 11.8002C2.39224 11.7924 2.40281 11.788 2.41384 11.788C2.41953 11.7879 2.42518 11.7891 2.43039 11.7914C2.4356 11.7937 2.44024 11.7971 2.44401 11.8014L4.27316 14.0577L5.54713 15.6226C5.76371 15.868 6.04868 16.0149 6.3095 16.0149H8.31433L8.16749 15.856Z" fill="url(#paint1_linear_579_5440)"/>
<path d="M11.8419 16.2402C10.4338 16.2402 9.46494 15.2713 9.46494 13.8659V4.77712C9.46547 4.57083 9.54779 4.37317 9.69385 4.22749C9.83991 4.08181 10.0378 4 10.2441 4H12.0692V13.3778C12.0692 13.5629 12.1426 13.7405 12.2733 13.8716C12.404 14.0027 12.5814 14.0766 12.7665 14.0771H14.6238V15.4657C14.6235 15.6722 14.5413 15.8701 14.3952 16.016C14.2492 16.162 14.0512 16.244 13.8447 16.2442L11.8419 16.2402Z" fill="url(#paint2_linear_579_5440)"/>
<path d="M11.8419 16.0135C10.5605 16.0135 9.6929 15.1466 9.6929 13.8679V4.77711C9.69308 4.63099 9.7512 4.4909 9.85453 4.38758C9.95785 4.28426 10.0979 4.22613 10.2441 4.22595H11.8405V13.3778C11.8405 13.6233 11.938 13.8589 12.1114 14.0328C12.2849 14.2066 12.5203 14.3045 12.7659 14.3051H14.3959V15.4657C14.3957 15.612 14.3375 15.7522 14.234 15.8555C14.1305 15.9588 13.9903 16.0169 13.844 16.0169L11.8419 16.0135Z" fill="url(#paint3_linear_579_5440)"/>
<path style="mix-blend-mode:screen" opacity="0.5" d="M0.260152 7.97345H0.228638V16.0015H0.260152V7.97345Z" fill="url(#paint4_radial_579_5440)"/>
<path style="mix-blend-mode:screen" opacity="0.25" d="M0.423767 16.0136H1.84793C2.10273 16.0136 2.37227 15.7856 2.37227 15.4389V11.8631H2.33942V15.4389C2.33942 15.7487 2.08529 15.9807 1.84793 15.9807H0.423767V16.0136Z" fill="url(#paint5_radial_579_5440)"/>
<path style="mix-blend-mode:screen" opacity="0.25" d="M9.72576 7.9084V4.74091C9.72576 4.50287 9.97251 4.25881 10.2099 4.25881H11.8084L11.8405 4.22662H10.2099C9.95507 4.22662 9.6929 4.48611 9.6929 4.74158V7.9084H9.72576Z" fill="url(#paint6_radial_579_5440)"/>
<path style="mix-blend-mode:screen" opacity="0.25" d="M9.72576 13.9169V7.93188H9.6929V13.9169H9.72576Z" fill="url(#paint7_radial_579_5440)"/>
<path style="mix-blend-mode:screen" opacity="0.5" d="M11.8064 13.2704C11.8043 13.3812 11.8146 13.4919 11.8372 13.6003C11.8811 13.7943 11.9861 13.9689 12.1369 14.0985C12.3092 14.248 12.5392 14.3379 12.8477 14.3379H14.3898V14.305H12.8255C12.4635 14.305 12.2294 14.1756 12.0625 13.9798C11.9642 13.8681 11.8951 13.7338 11.8613 13.5889C11.8409 13.4832 11.8326 13.3754 11.8365 13.2678L11.8064 13.2704Z" fill="url(#paint8_radial_579_5440)"/>
<path style="mix-blend-mode:screen" opacity="0.25" d="M13.8199 15.9814H11.8084C10.5787 15.9814 9.73717 15.1452 9.73717 13.9175H9.70432C9.70432 15.1634 10.5606 16.0142 11.8084 16.0142H13.8199V15.9814Z" fill="url(#paint9_radial_579_5440)"/>
<path style="mix-blend-mode:multiply" d="M9.6929 9.98227H11.8385V8.60571H9.6929V9.98227Z" fill="url(#paint10_linear_579_5440)"/>
<path style="mix-blend-mode:screen" opacity="0.25" d="M4.47365 11.3086C4.47365 11.3086 7.35283 7.76493 7.67266 7.37335H7.63042L4.44348 11.2932L4.47365 11.3086Z" fill="url(#paint11_radial_579_5440)"/>
<path style="mix-blend-mode:multiply" d="M6.24177 7.25732C5.94124 7.26398 5.64522 7.33181 5.37178 7.45666C5.09833 7.5815 4.85319 7.76076 4.65132 7.98349L2.48624 10.6461L4.49241 11.2884C4.49241 11.2884 7.41047 7.69584 7.73433 7.30024C7.3461 7.30024 6.24177 7.25732 6.24177 7.25732Z" fill="url(#paint12_linear_579_5440)"/>
<path style="mix-blend-mode:screen" opacity="0.25" d="M5.58133 15.6515C5.76974 15.8654 6.05672 16.0122 6.3028 16.0122H8.06155L8.03205 15.9807H6.3028C6.10701 15.9807 5.77846 15.852 5.58133 15.6515Z" fill="url(#paint13_radial_579_5440)"/>
<path style="mix-blend-mode:screen" opacity="0.25" d="M2.17714 4.22864H0.752977C0.498183 4.22864 0.228638 4.45661 0.228638 4.80327V8.45755H0.260822V4.80461C0.260822 4.49483 0.515616 4.26283 0.752977 4.26283H2.17714V4.22864Z" fill="url(#paint14_radial_579_5440)"/>
<path d="M12.9409 7.35257C11.4657 7.35257 6.13048 7.35257 6.13048 7.35257C5.20719 7.35257 4.59903 7.67911 4.16924 8.20278L2.85034 9.83346C3.32842 9.46937 3.98619 9.2528 4.66072 9.2528H12.9409C13.9909 9.2528 15 8.93095 15 8.10421C15 7.27747 14.9048 6.81616 14.9048 6.81616C14.9048 6.81616 14.412 7.35257 12.9409 7.35257Z" fill="url(#paint15_linear_579_5440)"/>
<path d="M2.86777 9.80795L4.39184 7.93052C4.76799 7.46988 5.2635 7.04343 6.30749 7.04343H12.9409C14.3436 7.04343 14.8324 6.54457 14.8377 6.53988L14.9986 6.37024V8.09882C14.9986 8.09882 15.0194 8.34691 14.7908 8.59768C14.471 8.94835 13.8481 9.12604 12.9402 9.12604H4.64529C3.5879 9.12604 2.86777 9.80795 2.86777 9.80795Z" fill="url(#paint16_linear_579_5440)"/>
<path style="mix-blend-mode:screen" opacity="0.7" d="M14.9872 8.18665C14.9785 8.35293 14.7586 9.08714 12.9402 9.08714H4.77335C4.01835 9.08714 3.43233 9.30103 2.87513 9.79319L2.86038 9.80995C3.29823 9.45793 3.83933 9.12268 4.77335 9.12268H12.9408C14.9919 9.12268 14.9879 8.18799 14.9879 8.18799L14.9872 8.18665Z" fill="url(#paint17_radial_579_5440)"/>
<defs>
<linearGradient id="paint0_linear_579_5440" x1="4.40459" y1="19.6933" x2="4.40459" y2="0.893523" gradientUnits="userSpaceOnUse">
<stop stop-color="#414041"/>
<stop offset="1" stop-color="#252B2B"/>
</linearGradient>
<linearGradient id="paint1_linear_579_5440" x1="4.26981" y1="1.5875" x2="4.26981" y2="18.6842" gradientUnits="userSpaceOnUse">
<stop stop-color="#333333"/>
<stop offset="1"/>
</linearGradient>
<linearGradient id="paint2_linear_579_5440" x1="12.0444" y1="16.4514" x2="12.0444" y2="3.95575" gradientUnits="userSpaceOnUse">
<stop stop-color="#414041"/>
<stop offset="1" stop-color="#252B2B"/>
</linearGradient>
<linearGradient id="paint3_linear_579_5440" x1="12.0444" y1="4.22595" x2="12.0444" y2="15.797" gradientUnits="userSpaceOnUse">
<stop stop-color="#333333"/>
<stop offset="1"/>
</linearGradient>
<radialGradient id="paint4_radial_579_5440" cx="0" cy="0" r="1" gradientUnits="userSpaceOnUse" gradientTransform="translate(0.240271 11.7278) scale(3.23971)">
<stop stop-color="white"/>
<stop offset="1" stop-color="#221E1F"/>
</radialGradient>
<radialGradient id="paint5_radial_579_5440" cx="0" cy="0" r="1" gradientUnits="userSpaceOnUse" gradientTransform="translate(2.16907 15.8326) scale(1.67209)">
<stop stop-color="white"/>
<stop offset="1" stop-color="#221E1F"/>
</radialGradient>
<radialGradient id="paint6_radial_579_5440" cx="0" cy="0" r="1" gradientUnits="userSpaceOnUse" gradientTransform="translate(9.75238 4.33562) scale(2.48042)">
<stop stop-color="white"/>
<stop offset="1" stop-color="#221E1F"/>
</radialGradient>
<radialGradient id="paint7_radial_579_5440" cx="0" cy="0" r="1" gradientUnits="userSpaceOnUse" gradientTransform="translate(9.69186 10.7214) scale(2.41548 2.41545)">
<stop stop-color="white"/>
<stop offset="1" stop-color="#221E1F"/>
</radialGradient>
<radialGradient id="paint8_radial_579_5440" cx="0" cy="0" r="1" gradientUnits="userSpaceOnUse" gradientTransform="translate(12.5443 14.2362) scale(1.21792)">
<stop stop-color="white"/>
<stop offset="1" stop-color="#221E1F"/>
</radialGradient>
<radialGradient id="paint9_radial_579_5440" cx="0" cy="0" r="1" gradientUnits="userSpaceOnUse" gradientTransform="translate(11.4729 15.8638) scale(2.24155)">
<stop stop-color="white"/>
<stop offset="1" stop-color="#221E1F"/>
</radialGradient>
<linearGradient id="paint10_linear_579_5440" x1="10.7671" y1="9.97758" x2="10.7671" y2="9.47067" gradientUnits="userSpaceOnUse">
<stop stop-color="white"/>
<stop offset="1" stop-color="#221D1E"/>
</linearGradient>
<radialGradient id="paint11_radial_579_5440" cx="0" cy="0" r="1" gradientUnits="userSpaceOnUse" gradientTransform="translate(5.19603 10.3341) scale(1.14211)">
<stop stop-color="white"/>
<stop offset="1" stop-color="#221E1F"/>
</radialGradient>
<linearGradient id="paint12_linear_579_5440" x1="5.11062" y1="10.0433" x2="5.11062" y2="8.80687" gradientUnits="userSpaceOnUse">
<stop stop-color="white"/>
<stop offset="0.53" stop-color="#221D1E"/>
<stop offset="1" stop-color="white"/>
</linearGradient>
<radialGradient id="paint13_radial_579_5440" cx="0" cy="0" r="1" gradientUnits="userSpaceOnUse" gradientTransform="translate(6.11646 15.9613) scale(1.51794 1.51793)">
<stop stop-color="white"/>
<stop offset="1" stop-color="#221E1F"/>
</radialGradient>
<radialGradient id="paint14_radial_579_5440" cx="0" cy="0" r="1" gradientUnits="userSpaceOnUse" gradientTransform="translate(1.0369 4.91326) rotate(180) scale(1.68355)">
<stop stop-color="white"/>
<stop offset="1" stop-color="#221E1F"/>
</radialGradient>
<linearGradient id="paint15_linear_579_5440" x1="14.9289" y1="6.90802" x2="2.82822" y2="10.0748" gradientUnits="userSpaceOnUse">
<stop stop-color="#CF1F27"/>
<stop offset="0.48" stop-color="#A11D20"/>
<stop offset="0.59" stop-color="#A41D21"/>
<stop offset="0.68" stop-color="#AF1E22"/>
<stop offset="0.77" stop-color="#C01E25"/>
<stop offset="0.83" stop-color="#CF1F27"/>
<stop offset="0.93" stop-color="#991B1E"/>
<stop offset="0.95" stop-color="#961B1E"/>
<stop offset="0.96" stop-color="#8D1A1C"/>
<stop offset="0.97" stop-color="#7D181A"/>
<stop offset="0.98" stop-color="#671617"/>
<stop offset="0.99" stop-color="#4A1313"/>
<stop offset="1" stop-color="#321010"/>
</linearGradient>
<linearGradient id="paint16_linear_579_5440" x1="6.1707" y1="5.77147" x2="12.566" y2="11.1376" gradientUnits="userSpaceOnUse">
<stop stop-color="#B81F24"/>
<stop offset="0.02" stop-color="#D71F26"/>
<stop offset="0.03" stop-color="#DD3130"/>
<stop offset="0.07" stop-color="#E95544"/>
<stop offset="0.09" stop-color="#F06B51"/>
<stop offset="0.11" stop-color="#F37355"/>
<stop offset="0.28" stop-color="#F05041"/>
<stop offset="0.48" stop-color="#ED2126"/>
<stop offset="0.71" stop-color="#ED2126"/>
<stop offset="1" stop-color="#D71F26"/>
</linearGradient>
<radialGradient id="paint17_radial_579_5440" cx="0" cy="0" r="1" gradientUnits="userSpaceOnUse" gradientTransform="translate(3.26467 9.29708) scale(11.5759)">
<stop stop-color="#000101"/>
<stop offset="0.24" stop-color="white"/>
<stop offset="0.76" stop-color="white"/>
<stop offset="0.78" stop-color="#FAFAFA"/>
<stop offset="0.81" stop-color="#ECECEC"/>
<stop offset="0.85" stop-color="#D4D5D5"/>
<stop offset="0.88" stop-color="#B3B4B4"/>
<stop offset="0.91" stop-color="#898989"/>
<stop offset="0.95" stop-color="#555656"/>
<stop offset="0.99" stop-color="#191A1A"/>
<stop offset="1" stop-color="#000101"/>
</radialGradient>
</defs>
</svg>
