<svg width="60" height="20" viewBox="0 0 60 20" fill="none" xmlns="http://www.w3.org/2000/svg">
<path d="M7.19232 13.9987L4.80657 11.1375L8.27292 6.98423H6.38186C6.01232 6.96278 5.64286 7.02759 5.30419 7.17325C4.96552 7.31891 4.66742 7.54123 4.43468 7.82173L2.61028 10.0095V4H0.778875C0.571983 4.0009 0.37388 4.08162 0.227913 4.22448C0.0819456 4.36734 -2.08019e-06 4.56071 0 4.76229L0 15.9643H1.83141C2.03677 15.9643 2.23382 15.8853 2.37969 15.7444C2.52556 15.6036 2.60843 15.4123 2.61028 15.2122V12.2314L4.09436 14.0055L5.3574 15.5199C5.46743 15.6589 5.60887 15.7713 5.77072 15.8483C5.93258 15.9254 6.1105 15.9651 6.29064 15.9643H8.84479L7.19232 13.9987Z" fill="url(#paint0_linear_1062_6977)"/>
<path d="M8.19922 15.5985C8.05186 15.4413 7.46244 14.6858 6.72567 13.838C5.75032 12.7168 4.75392 11.4452 4.50833 11.1444L7.66593 7.35342L7.79575 7.20643H6.2801C5.96841 7.21335 5.66145 7.2821 5.37794 7.40846C5.09443 7.53482 4.84032 7.71615 4.63113 7.94137L2.45589 10.553C2.44576 10.557 2.43444 10.557 2.42431 10.553C2.41315 10.553 2.40244 10.5487 2.39454 10.541C2.38665 10.5333 2.38221 10.5229 2.38221 10.512V4.22562H0.778853C0.632765 4.22562 0.49266 4.28216 0.389361 4.38281C0.286061 4.48345 0.228027 4.61996 0.228027 4.7623V15.7557H1.83139C1.90418 15.7553 1.97618 15.7409 2.04326 15.7133C2.11034 15.6858 2.17119 15.6456 2.22234 15.5951C2.27349 15.5447 2.31393 15.4849 2.34136 15.4192C2.36879 15.3535 2.38268 15.2832 2.38221 15.2122V11.6605C2.38221 11.6552 2.3833 11.6498 2.38542 11.6449C2.38753 11.6399 2.39064 11.6354 2.39454 11.6315C2.39845 11.6277 2.4031 11.6247 2.4082 11.6227C2.41331 11.6206 2.41879 11.6195 2.42431 11.6195C2.43469 11.6171 2.44552 11.6171 2.45589 11.6195L4.29081 13.8244L5.57139 15.3558C5.66477 15.4677 5.78096 15.5595 5.91261 15.6254C6.04425 15.6913 6.1885 15.7298 6.33623 15.7387H8.34657L8.19922 15.5985Z" fill="url(#paint1_linear_1062_6977)"/>
<path d="M11.8901 15.9643C11.5728 15.9805 11.2554 15.9315 10.9587 15.8207C10.6619 15.7098 10.3924 15.5394 10.1675 15.3207C9.94261 15.1019 9.76738 14.8395 9.65315 14.5505C9.53892 14.2616 9.48825 13.9524 9.5044 13.6432V4.75546C9.50625 4.55447 9.58949 4.36233 9.73602 4.22085C9.88255 4.07937 10.0805 3.99999 10.2868 4L12.1182 4V13.1749C12.1182 13.3562 12.1921 13.5301 12.3237 13.6583C12.4553 13.7865 12.6338 13.8586 12.8199 13.8586H14.6829V15.2259C14.6765 15.4239 14.5912 15.6117 14.4452 15.7495C14.2992 15.8873 14.1038 15.9644 13.9005 15.9643H11.8901Z" fill="url(#paint2_linear_1062_6977)"/>
<path d="M11.8901 15.7557C11.6026 15.771 11.3151 15.7271 11.0462 15.6269C10.7773 15.5267 10.5331 15.3723 10.3295 15.174C10.1259 14.9756 9.96751 14.7377 9.86464 14.4757C9.76176 14.2137 9.71671 13.9335 9.73242 13.6534V4.7657C9.73149 4.69436 9.74516 4.62355 9.77265 4.55742C9.80013 4.49129 9.84087 4.43117 9.89249 4.38056C9.9441 4.32995 10.0056 4.28988 10.0733 4.26268C10.1409 4.23549 10.2135 4.22172 10.2868 4.22218H11.8901V13.1749C11.8901 13.4151 11.9881 13.6455 12.1624 13.8154C12.3368 13.9853 12.5733 14.0807 12.8199 14.0807H14.4548V15.2156C14.4548 15.3589 14.3964 15.4962 14.2924 15.5975C14.1885 15.6988 14.0475 15.7557 13.9005 15.7557H11.8901Z" fill="url(#paint3_linear_1062_6977)"/>
<path style="mix-blend-mode:screen" opacity="0.5" d="M0.259603 7.88669H0.228027V15.7421H0.259603V7.88669Z" fill="url(#paint4_radial_1062_6977)"/>
<path style="mix-blend-mode:screen" opacity="0.25" d="M0.424561 15.7557H1.85601C2.00213 15.7478 2.13919 15.6842 2.23763 15.5787C2.33608 15.4731 2.38802 15.3342 2.38227 15.1917V11.6913H2.3507V15.1917C2.3529 15.3247 2.30296 15.4536 2.21105 15.5521C2.11914 15.6505 1.99217 15.7111 1.85601 15.7215H0.424561V15.7557Z" fill="url(#paint5_radial_1062_6977)"/>
<path style="mix-blend-mode:screen" opacity="0.25" d="M9.764 7.82512V4.72467C9.77448 4.60239 9.82932 4.48776 9.91868 4.40131C10.0081 4.31486 10.1261 4.26226 10.2517 4.25293H11.8585L11.8901 4.22217H10.2517C10.1177 4.23157 9.99171 4.28744 9.89645 4.37964C9.80118 4.47183 9.74298 4.59425 9.73242 4.72467V7.82512H9.764Z" fill="url(#paint6_radial_1062_6977)"/>
<path style="mix-blend-mode:screen" opacity="0.25" d="M9.764 13.7013V7.84567H9.73242V13.7013H9.764Z" fill="url(#paint7_radial_1062_6977)"/>
<path style="mix-blend-mode:screen" opacity="0.5" d="M11.8551 13.0689C11.8526 13.178 11.8632 13.287 11.8867 13.3937C11.9301 13.5832 12.0361 13.7537 12.1884 13.8791C12.3842 14.0398 12.6343 14.1239 12.8901 14.1149H14.4373V14.0807H12.8796C12.6627 14.0898 12.4493 14.0253 12.2759 13.8981C12.1025 13.7709 11.9798 13.589 11.9288 13.3834C11.9095 13.2797 11.9012 13.1743 11.9042 13.0689H11.8551Z" fill="url(#paint8_radial_1062_6977)"/>
<path style="mix-blend-mode:screen" opacity="0.25" d="M13.8759 15.7215H11.8621C11.5855 15.7363 11.3088 15.6942 11.05 15.5979C10.7912 15.5017 10.5561 15.3535 10.3599 15.163C10.1637 14.9725 10.0108 14.7439 9.91117 14.4921C9.81153 14.2403 9.76738 13.9708 9.78157 13.7013H9.74649C9.73295 13.9741 9.77813 14.2467 9.87913 14.5015C9.98013 14.7563 10.1347 14.9877 10.333 15.1809C10.5312 15.374 10.7687 15.5247 11.0302 15.6231C11.2918 15.7215 11.5715 15.7655 11.8516 15.7523H13.8654L13.8759 15.7215Z" fill="url(#paint9_radial_1062_6977)"/>
<path style="mix-blend-mode:multiply" d="M9.73242 9.85224H11.8901V8.5054H9.73242V9.85224Z" fill="url(#paint10_linear_1062_6977)"/>
<path style="mix-blend-mode:screen" opacity="0.25" d="M4.49084 11.1478C4.49084 11.1478 7.36776 7.68159 7.71861 7.29874H7.67651L4.46277 11.1341L4.49084 11.1478Z" fill="url(#paint11_radial_1062_6977)"/>
<path style="mix-blend-mode:multiply" d="M6.26963 7.18594C5.96747 7.1929 5.6699 7.25949 5.39491 7.38171C5.11993 7.50392 4.87324 7.6792 4.66978 7.89696L2.49805 10.4949L4.51189 11.1239C4.51189 11.1239 7.44145 7.60982 7.76773 7.22355C7.36777 7.23038 6.26963 7.18594 6.26963 7.18594Z" fill="url(#paint12_linear_1062_6977)"/>
<path style="mix-blend-mode:screen" opacity="0.25" d="M5.61353 15.4002C5.70557 15.5009 5.81709 15.583 5.94171 15.6416C6.06633 15.7003 6.2016 15.7344 6.33977 15.7421H8.094L8.06944 15.7216H6.31521C6.05127 15.6931 5.80448 15.5801 5.61353 15.4002Z" fill="url(#paint13_radial_1062_6977)"/>
<path style="mix-blend-mode:screen" opacity="0.25" d="M2.1858 4.22562H0.754355C0.608863 4.23358 0.472342 4.29669 0.373994 4.40145C0.275645 4.50622 0.223276 4.64433 0.228088 4.78623V8.36183H0.263172V4.78623C0.260904 4.65371 0.310357 4.5253 0.401535 4.42694C0.492713 4.32858 0.618816 4.26762 0.754355 4.25638H2.1858V4.22562Z" fill="url(#paint14_radial_1062_6977)"/>
<path d="M12.9813 7.28162H6.15384C5.78272 7.25845 5.41121 7.32063 5.06931 7.46314C4.7274 7.60565 4.42469 7.8245 4.1856 8.10202L2.86292 9.70523C3.38863 9.32873 4.02433 9.12627 4.67678 9.12753H12.9813C14.0338 9.12753 15.0477 8.81304 15.0477 8.00289C15.0556 7.58277 15.0239 7.16283 14.953 6.74835C14.953 6.74835 14.4724 7.28162 12.9813 7.28162Z" fill="url(#paint15_linear_1062_6977)"/>
<path d="M2.88037 9.68132L4.41005 7.84566C4.63068 7.55609 4.92219 7.32493 5.25802 7.17327C5.59385 7.02161 5.9633 6.95427 6.33268 6.9774H12.9812C14.3846 6.9774 14.8793 6.49199 14.8828 6.48516L15.0477 6.32108V8.00975C15.0448 8.19303 14.9694 8.36816 14.8372 8.49857C14.5144 8.84041 13.8899 9.01474 12.9812 9.01474H4.66617C4.00917 9.02641 3.3772 9.26231 2.88037 9.68132Z" fill="url(#paint16_linear_1062_6977)"/>
<path style="mix-blend-mode:screen" opacity="0.7" d="M15.0477 8.10205C15.0477 8.26613 14.8197 8.98399 12.9953 8.98399H4.79254C4.09007 8.95969 3.40591 9.20521 2.88745 9.66766V9.68475C3.41627 9.23002 4.10142 8.98594 4.80657 9.00108H12.9813C15.0407 9.00108 15.0337 8.08838 15.0337 8.08838L15.0477 8.10205Z" fill="url(#paint17_radial_1062_6977)"/>
<path d="M19.963 14.5285C20.6015 14.5285 21.2436 14.5285 21.8926 14.5285C22.0963 14.5248 22.2979 14.4878 22.4891 14.4191C22.5708 14.3885 22.6397 14.3322 22.6848 14.2592C22.7299 14.1861 22.7487 14.1004 22.7382 14.0158C22.7409 13.9049 22.7023 13.7968 22.6294 13.7115C22.5162 13.6027 22.3778 13.5218 22.2259 13.4757L20.0332 12.7168C19.5903 12.5823 19.1976 12.3244 18.9034 11.975C18.6867 11.6593 18.5786 11.2846 18.5947 10.9051C18.582 10.6479 18.632 10.3915 18.7405 10.1569C18.8491 9.92218 19.0131 9.71586 19.2192 9.55481C19.7229 9.20197 20.3324 9.02165 20.9524 9.04205C21.1769 9.04205 21.412 9.04205 21.6541 9.04205C21.8962 9.04205 22.1453 9.04205 22.3558 9.04205C22.6731 9.06134 22.9916 9.04989 23.3065 9.00787C23.5508 8.97535 23.7879 8.90374 24.0082 8.79593V9.66077C24.0118 9.80127 23.9687 9.93914 23.8854 10.0539C23.7919 10.1695 23.6717 10.262 23.5346 10.3239C23.3799 10.4002 23.2143 10.4532 23.0434 10.4812C22.8498 10.5118 22.6535 10.5232 22.4575 10.5154C22.2189 10.5154 21.9593 10.5154 21.6821 10.5154C21.405 10.5154 21.1453 10.5154 20.9033 10.5154C20.7126 10.5095 20.5231 10.5457 20.3489 10.6213C20.3011 10.6517 20.2606 10.6917 20.23 10.7386C20.1993 10.7855 20.1794 10.8382 20.1714 10.8933C20.1634 10.9483 20.1676 11.0044 20.1837 11.0577C20.1998 11.111 20.2274 11.1604 20.2647 11.2025C20.3826 11.2905 20.514 11.3597 20.6542 11.4076L22.8048 12.1493C23.2192 12.2935 23.5946 12.5272 23.903 12.833C24.0564 12.9977 24.1735 13.1912 24.2471 13.4017C24.3207 13.6122 24.3493 13.8351 24.331 14.0568C24.3394 14.3635 24.2669 14.6671 24.1205 14.9387C23.9789 15.1802 23.779 15.3844 23.5381 15.5335C23.2744 15.6958 22.9834 15.8115 22.6785 15.8754C22.332 15.9427 21.9794 15.976 21.626 15.9745H19.9981C19.7755 15.9796 19.5533 15.9531 19.3385 15.8959C19.1915 15.851 19.057 15.7738 18.9455 15.6703C18.8536 15.5854 18.7869 15.4779 18.7526 15.3592C18.7197 15.2481 18.7032 15.133 18.7035 15.0173V14.4089C18.7035 14.3542 18.7315 14.3337 18.7842 14.3542C18.9579 14.408 19.1364 14.4458 19.3174 14.467C19.5314 14.4982 19.7469 14.5187 19.963 14.5285Z" fill="#EC1B23"/>
<path d="M28.6078 12.2724C28.8674 12.5493 29.1411 12.8501 29.4288 13.1715L30.2954 14.1354C30.5866 14.4773 30.8743 14.7815 31.162 15.096L31.9654 15.9643H30.4392C30.2921 15.9668 30.1462 15.9375 30.0121 15.8784C29.878 15.8193 29.759 15.7318 29.6639 15.6224L27.3027 12.9869V15.3387C27.3036 15.4208 27.2878 15.5023 27.256 15.5784C27.2243 15.6545 27.1774 15.7236 27.1179 15.7819C27.0585 15.8401 26.9878 15.8862 26.9099 15.9175C26.832 15.9488 26.7484 15.9647 26.6641 15.9643H25.7239V7.68841C25.7239 7.58244 25.7239 7.44229 25.7414 7.27137C25.7562 7.09982 25.7939 6.93088 25.8537 6.76887C25.9101 6.61481 25.9971 6.47309 26.1098 6.35183C26.1685 6.29135 26.24 6.24411 26.3194 6.2134C26.3988 6.18269 26.4841 6.16927 26.5694 6.17408H27.6219C27.4884 6.38263 27.3989 6.61506 27.3588 6.85775C27.3115 7.12762 27.288 7.40095 27.2886 7.67474V11.5546L29.5656 9.35315C29.6865 9.21867 29.8431 9.1193 30.0182 9.06601C30.1898 9.0385 30.3636 9.02592 30.5375 9.02841H31.9268L28.6078 12.2724Z" fill="#EC1B23"/>
<path d="M34.5547 18.8152L35.5546 15.6634C35.3107 15.6174 35.0834 15.5102 34.895 15.3524C34.6673 15.1459 34.4981 14.8857 34.4039 14.5969L32.5584 9.56851C32.5037 9.45397 32.4938 9.32394 32.5303 9.20275C32.5748 9.08652 32.6917 9.02841 32.8812 9.02841H33.9899L35.8072 14.1765C35.823 14.2209 35.8417 14.2643 35.8634 14.3064C35.8736 14.3224 35.8882 14.3353 35.9056 14.3438C35.9229 14.3522 35.9423 14.3558 35.9616 14.3542C36.0177 14.3542 36.0633 14.2961 36.0984 14.1765L37.2527 10.3923C37.3002 10.2318 37.3576 10.0743 37.4246 9.9206C37.4905 9.76503 37.5741 9.61713 37.6737 9.47964C37.7682 9.34571 37.8871 9.22984 38.0246 9.1378C38.158 9.05301 38.3144 9.00897 38.4737 9.01132H39.7227C39.493 9.16677 39.3072 9.37601 39.1824 9.61979C39.0149 9.92639 38.8752 10.2467 38.7649 10.5769L36.3089 18.1896C36.2558 18.3603 36.1634 18.517 36.0388 18.6477C35.9136 18.753 35.7514 18.807 35.5862 18.7981L34.5547 18.8152Z" fill="#EC1B23"/>
<path d="M42.0768 6.16038V14.0226C42.0688 14.1859 42.117 14.3471 42.2136 14.4807C42.2633 14.5409 42.3272 14.5886 42.3999 14.6196C42.4726 14.6505 42.5519 14.6639 42.6311 14.6584H42.7399C42.9714 14.6584 43.1819 14.6584 43.3749 14.6311C43.5588 14.6122 43.7386 14.5661 43.9082 14.4943C43.9433 14.4943 43.9643 14.4943 43.9643 14.5217V15.2259C43.9692 15.3555 43.9394 15.4842 43.8779 15.5992C43.8164 15.7143 43.7253 15.8118 43.6135 15.8822C43.3526 16.039 43.0496 16.1163 42.7434 16.1044H42.382C42.0778 16.1132 41.7755 16.0548 41.4979 15.9335C41.274 15.8296 41.0791 15.6748 40.9295 15.4822C40.7862 15.2867 40.6826 15.0662 40.6243 14.8328C40.5647 14.5852 40.5353 14.3316 40.5366 14.0773V6.79619C40.5339 6.71315 40.5484 6.63044 40.5792 6.55294C40.6099 6.47545 40.6562 6.40473 40.7155 6.34497C40.7744 6.28434 40.8458 6.23654 40.925 6.20473C41.0042 6.17291 41.0895 6.1578 41.1751 6.16038H42.0768Z" fill="#EC1B23"/>
<path d="M46.722 7.54142C46.7244 7.62444 46.7098 7.70709 46.6791 7.78456C46.6484 7.86203 46.6021 7.93277 46.5431 7.99264C46.4803 8.05495 46.4047 8.10361 46.3212 8.13543C46.2378 8.16724 46.1484 8.18149 46.0589 8.17723H45.1432V7.07652C45.1432 6.64581 45.3537 6.42703 45.7817 6.42703H46.722V7.54142ZM46.722 9.0284V15.1815C46.7431 15.395 46.69 15.6093 46.5711 15.7899C46.4872 15.8585 46.3897 15.9094 46.2846 15.9394C46.1795 15.9694 46.0692 15.9778 45.9606 15.9643H45.1432V9.65055C45.1382 9.56789 45.1503 9.4851 45.1786 9.40703C45.2069 9.32896 45.2509 9.25718 45.3081 9.1959C45.3709 9.13764 45.4454 9.09267 45.5269 9.06384C45.6084 9.03502 45.6952 9.02295 45.7817 9.0284H46.722Z" fill="#EC1B23"/>
<path d="M50.8444 9.02843H51.3987C52.2302 9.02843 52.753 8.94297 52.967 8.76863V9.62322C52.9732 9.75955 52.9357 9.89438 52.8596 10.0089C52.7835 10.1235 52.6726 10.2121 52.5424 10.2625C52.1998 10.4073 51.8281 10.475 51.4548 10.4607H50.8444V15.3387C50.8555 15.4244 50.8462 15.5114 50.8172 15.5929C50.7882 15.6745 50.7403 15.7484 50.6771 15.809C50.6139 15.8695 50.5373 15.915 50.4531 15.942C50.3689 15.9689 50.2795 15.9766 50.1918 15.9643H49.2621V10.4607H47.8061V9.65057C47.794 9.56491 47.8027 9.47768 47.8314 9.39587C47.8602 9.31407 47.9082 9.23996 47.9716 9.17949C48.0351 9.11901 48.1122 9.07385 48.1967 9.04762C48.2813 9.02139 48.371 9.01482 48.4586 9.02843H49.2621V8.10205C49.2572 7.82509 49.3122 7.55024 49.4234 7.29532C49.5232 7.06682 49.6687 6.85997 49.8515 6.68685C50.0349 6.52102 50.2493 6.39105 50.483 6.304C50.7303 6.21127 50.9934 6.16488 51.2584 6.16726H52.9775V6.83726C52.9822 6.94568 52.9627 7.0538 52.9203 7.15415C52.8779 7.25449 52.8136 7.34465 52.7319 7.41838C52.5617 7.55807 52.3437 7.63009 52.1214 7.62007H51.3706C51.2333 7.61497 51.0983 7.656 50.9882 7.73629C50.9361 7.78608 50.8961 7.84664 50.8712 7.91349C50.8463 7.98035 50.8371 8.05179 50.8444 8.12256V9.02843Z" fill="#EC1B23"/>
<path d="M56.4088 14.679C56.6193 14.6961 56.8649 14.7029 57.142 14.6995L57.8788 14.679C58.0384 14.6763 58.1977 14.6649 58.356 14.6448L58.8928 14.5696C59.056 14.5445 59.2177 14.5102 59.3769 14.467C59.4981 14.437 59.6157 14.3946 59.7278 14.3406C59.7629 14.3235 59.7839 14.3406 59.7839 14.3679V15.1097C59.7869 15.2042 59.7697 15.2982 59.7334 15.3859C59.6972 15.4735 59.6427 15.5529 59.5734 15.619C59.3985 15.7697 59.1892 15.8775 58.9629 15.9335C58.7936 15.9851 58.6198 16.0217 58.4437 16.0429C58.2449 16.0702 58.0344 16.0908 57.8122 16.1044C57.5911 16.1044 57.3596 16.1249 57.1105 16.1249H56.4369C55.7364 16.1552 55.0511 15.92 54.5248 15.4686C54.2728 15.2317 54.0736 14.9467 53.9396 14.6315C53.8056 14.3162 53.7397 13.9775 53.7459 13.6364C53.7283 13.2945 53.7213 12.9322 53.7213 12.522C53.7213 12.1118 53.7213 11.7392 53.7459 11.4076C53.7491 11.0822 53.8211 10.7609 53.9576 10.4639C54.094 10.1669 54.2919 9.90046 54.5388 9.68133C55.037 9.22555 55.7901 8.99766 56.7982 8.99766H57.2999C57.6564 8.99427 58.0113 9.04384 58.3525 9.14465C58.6621 9.23446 58.9531 9.3768 59.212 9.56511C59.4618 9.74731 59.6632 9.98515 59.7993 10.2587C59.9354 10.5323 60.0023 10.8336 59.9944 11.1376V11.6913C60.0156 11.9358 59.9763 12.1816 59.8798 12.4082C59.7834 12.6348 59.6326 12.8356 59.4401 12.9937C58.9215 13.3091 58.3128 13.4541 57.7034 13.4073H55.2896V13.6364C55.2906 13.7519 55.3071 13.8668 55.3387 13.9782C55.3723 14.0976 55.4321 14.2084 55.5141 14.303C55.6103 14.4125 55.7301 14.5 55.865 14.5593C56.0357 14.6358 56.2209 14.6766 56.4088 14.679ZM58.4612 11.2162C58.4613 11.1024 58.4304 10.9907 58.3719 10.8922C58.3134 10.7938 58.2292 10.7121 58.1279 10.6556C57.8682 10.5063 57.5696 10.4338 57.2684 10.447H56.8087C56.5716 10.4422 56.335 10.4721 56.1071 10.5359C55.9371 10.5805 55.7783 10.6584 55.6404 10.765C55.5337 10.8484 55.4484 10.9549 55.3913 11.076C55.3406 11.1832 55.3142 11.2998 55.3142 11.4179V11.9716H57.6999C57.8856 11.9746 58.0711 11.9609 58.2542 11.9306C58.2891 11.9256 58.3226 11.9139 58.3528 11.8962C58.383 11.8785 58.4093 11.8552 58.4302 11.8275C58.451 11.7999 58.4661 11.7685 58.4744 11.7351C58.4828 11.7018 58.4842 11.6671 58.4788 11.6332L58.4612 11.2162Z" fill="#EC1B23"/>
<defs>
<linearGradient id="paint0_linear_1062_6977" x1="4.42064" y1="19.3553" x2="4.42064" y2="0.961078" gradientUnits="userSpaceOnUse">
<stop stop-color="#414041"/>
<stop offset="1" stop-color="#252A2B"/>
</linearGradient>
<linearGradient id="paint1_linear_1062_6977" x1="4.2873" y1="1.64134" x2="4.2873" y2="18.3674" gradientUnits="userSpaceOnUse">
<stop stop-color="#333333"/>
<stop offset="1"/>
</linearGradient>
<linearGradient id="paint2_linear_1062_6977" x1="188.104" y1="430.514" x2="188.104" y2="2.44425" gradientUnits="userSpaceOnUse">
<stop stop-color="#414041"/>
<stop offset="1" stop-color="#252A2B"/>
</linearGradient>
<linearGradient id="paint3_linear_1062_6977" x1="172.615" y1="11.7209" x2="172.615" y2="393.811" gradientUnits="userSpaceOnUse">
<stop stop-color="#333333"/>
<stop offset="1"/>
</linearGradient>
<radialGradient id="paint4_radial_1062_6977" cx="0" cy="0" r="1" gradientUnits="userSpaceOnUse" gradientTransform="translate(0.416606 11.6684) scale(3.2597 3.176)">
<stop stop-color="white"/>
<stop offset="1" stop-color="#221E1F"/>
</radialGradient>
<radialGradient id="paint5_radial_1062_6977" cx="0" cy="0" r="1" gradientUnits="userSpaceOnUse" gradientTransform="translate(614.596 583.922) scale(5.75694 11.9494)">
<stop stop-color="white"/>
<stop offset="1" stop-color="#221E1F"/>
</radialGradient>
<radialGradient id="paint6_radial_1062_6977" cx="0" cy="0" r="1" gradientUnits="userSpaceOnUse" gradientTransform="translate(715.277 438.558) scale(9.42913 15.7449)">
<stop stop-color="white"/>
<stop offset="1" stop-color="#221E1F"/>
</radialGradient>
<radialGradient id="paint7_radial_1062_6977" cx="0" cy="0" r="1" gradientUnits="userSpaceOnUse" gradientTransform="translate(20.0547 779.562) scale(0.134203 24.8865)">
<stop stop-color="white"/>
<stop offset="1" stop-color="#221E1F"/>
</radialGradient>
<radialGradient id="paint8_radial_1062_6977" cx="0" cy="0" r="1" gradientUnits="userSpaceOnUse" gradientTransform="translate(869.038 157.488) scale(5.52672 2.23986)">
<stop stop-color="white"/>
<stop offset="1" stop-color="#221E1F"/>
</radialGradient>
<radialGradient id="paint9_radial_1062_6977" cx="0" cy="0" r="1" gradientUnits="userSpaceOnUse" gradientTransform="translate(1373.32 302.888) scale(16.2792 8.09)">
<stop stop-color="white"/>
<stop offset="1" stop-color="#221E1F"/>
</radialGradient>
<linearGradient id="paint10_linear_1062_6977" x1="10.813" y1="9.84882" x2="10.813" y2="9.35316" gradientUnits="userSpaceOnUse">
<stop stop-color="white"/>
<stop offset="1" stop-color="#211D1E"/>
</linearGradient>
<radialGradient id="paint11_radial_1062_6977" cx="0" cy="0" r="1" gradientUnits="userSpaceOnUse" gradientTransform="translate(1042.98 511.951) scale(6.54424 7.73664)">
<stop stop-color="white"/>
<stop offset="1" stop-color="#221E1F"/>
</radialGradient>
<linearGradient id="paint12_linear_1062_6977" x1="5.13289" y1="9.91379" x2="5.13289" y2="8.7037" gradientUnits="userSpaceOnUse">
<stop stop-color="white"/>
<stop offset="0.53" stop-color="#211D1E"/>
<stop offset="1" stop-color="white"/>
</linearGradient>
<radialGradient id="paint13_radial_1062_6977" cx="0" cy="0" r="1" gradientUnits="userSpaceOnUse" gradientTransform="translate(800.828 63.6026) scale(6.62286 0.912703)">
<stop stop-color="white"/>
<stop offset="1" stop-color="#221E1F"/>
</radialGradient>
<radialGradient id="paint14_radial_1062_6977" cx="0" cy="0" r="1" gradientUnits="userSpaceOnUse" gradientTransform="translate(-13370.4 -25955.5) rotate(180) scale(9.44704 19.9564)">
<stop stop-color="white"/>
<stop offset="1" stop-color="#221E1F"/>
</radialGradient>
<linearGradient id="paint15_linear_1062_6977" x1="14.9916" y1="6.84407" x2="2.87985" y2="10.0989" gradientUnits="userSpaceOnUse">
<stop stop-color="#CE2027"/>
<stop offset="0.48" stop-color="#A01D20"/>
<stop offset="0.59" stop-color="#A31D21"/>
<stop offset="0.68" stop-color="#AE1E22"/>
<stop offset="0.77" stop-color="#BF1F25"/>
<stop offset="0.83" stop-color="#CE2027"/>
<stop offset="0.93" stop-color="#991B1E"/>
<stop offset="0.95" stop-color="#961B1E"/>
<stop offset="0.96" stop-color="#8D1A1C"/>
<stop offset="0.97" stop-color="#7D181A"/>
<stop offset="0.98" stop-color="#671517"/>
<stop offset="0.99" stop-color="#4A1213"/>
<stop offset="1" stop-color="#310F0F"/>
</linearGradient>
<linearGradient id="paint16_linear_1062_6977" x1="6.19585" y1="5.73312" x2="12.4777" y2="11.1447" gradientUnits="userSpaceOnUse">
<stop stop-color="#B71F24"/>
<stop offset="0.02" stop-color="#D61F26"/>
<stop offset="0.03" stop-color="#DC3030"/>
<stop offset="0.07" stop-color="#E85443"/>
<stop offset="0.09" stop-color="#EF6A50"/>
<stop offset="0.11" stop-color="#F27254"/>
<stop offset="0.28" stop-color="#EF4F40"/>
<stop offset="0.48" stop-color="#EC2126"/>
<stop offset="0.71" stop-color="#EC2126"/>
<stop offset="1" stop-color="#D61F26"/>
</linearGradient>
<radialGradient id="paint17_radial_1062_6977" cx="0" cy="0" r="1" gradientUnits="userSpaceOnUse" gradientTransform="translate(3.45901 9.28357) scale(11.6548 11.3556)">
<stop/>
<stop offset="0.24" stop-color="white"/>
<stop offset="0.76" stop-color="white"/>
<stop offset="0.78" stop-color="#FAFAFA"/>
<stop offset="0.81" stop-color="#ECECEC"/>
<stop offset="0.85" stop-color="#D4D4D4"/>
<stop offset="0.88" stop-color="#B3B3B3"/>
<stop offset="0.91" stop-color="#898989"/>
<stop offset="0.95" stop-color="#555555"/>
<stop offset="0.99" stop-color="#191919"/>
<stop offset="1"/>
</radialGradient>
</defs>
</svg>
