<svg width="61" height="20" viewBox="0 0 61 20" fill="none" xmlns="http://www.w3.org/2000/svg">
<path d="M8.57817e-05 10.2327C0.00152734 11.3143 0.217292 12.3848 0.634912 13.3825C1.05253 14.3801 1.66373 15.2851 2.43318 16.0452C3.20263 16.8053 4.11507 17.4053 5.11779 17.8106C6.12051 18.216 7.19361 18.4186 8.2751 18.4067C10.4508 18.3994 12.5344 17.5281 14.0676 15.9845C15.6009 14.4408 16.4581 12.3514 16.4508 10.1757C16.4434 8.00005 15.5721 5.91641 14.0285 4.38318C12.4849 2.84994 10.3954 1.9927 8.21972 2.00005C7.1383 1.99681 6.06693 2.20764 5.06737 2.62039C4.0678 3.03313 3.15981 3.63963 2.39573 4.40492C1.63165 5.17021 1.0266 6.07916 0.615434 7.07938C0.204272 8.07959 -0.00486199 9.1513 8.57817e-05 10.2327Z" fill="white"/>
<path d="M37.6423 8.13017C37.6194 7.74001 37.515 7.35898 37.3358 7.01169C37.1565 6.66439 36.9064 6.35856 36.6016 6.11394C35.5332 5.23774 34.2694 5.04231 32.9405 5.09442C30.8509 5.17748 29.2842 6.39732 28.7061 8.40377C28.3647 9.63662 28.3715 10.9399 28.7256 12.1691C29.2989 14.2977 30.8249 15.4264 33.03 15.3075C33.5368 15.2967 34.034 15.1667 34.4813 14.9282C34.9286 14.6897 35.3135 14.3493 35.6049 13.9346L35.7335 15.0209H37.6977V9.73273H33.6082V11.1578L35.4893 11.2539C35.5072 12.4639 34.9095 13.3075 33.9469 13.547C33.4708 13.6775 32.9635 13.6308 32.5192 13.4154C32.075 13.2 31.7241 12.8307 31.5317 12.376C31.2074 11.7107 31.0388 10.9802 31.0388 10.24C31.0388 9.49988 31.2074 8.76943 31.5317 8.10411C31.7829 7.64935 32.1726 7.28651 32.6441 7.06831C33.5838 6.61881 34.3118 6.97385 35.1228 8.13017H37.6423Z" fill="#767B7D"/>
<path d="M42.9501 5.37778C42.9156 5.466 42.8911 5.55776 42.8768 5.65139C42.8768 7.67413 42.8149 9.6985 42.8914 11.718C42.9598 13.5339 43.9044 14.687 45.5738 15.1071C46.2427 15.2667 46.9308 15.3308 47.6177 15.2977C49.932 15.2097 51.2593 13.8938 51.3277 11.591C51.3831 9.69199 51.3489 7.78976 51.3472 5.89079C51.3344 5.72039 51.3066 5.55145 51.2642 5.38592H48.9841C48.9678 5.64324 48.945 5.85985 48.945 6.07645C48.945 7.53244 48.945 8.98842 48.945 10.4444C48.9399 10.928 48.9061 11.411 48.844 11.8906C48.7284 12.7929 48.1926 13.3026 47.3392 13.3564C46.2855 13.4166 45.7024 13.0421 45.4679 12.117C45.3866 11.7844 45.3456 11.4432 45.3458 11.1007C45.3327 9.42164 45.3458 7.74416 45.3376 6.06505C45.3376 5.85008 45.3148 5.63673 45.2985 5.38592L42.9501 5.37778Z" fill="#767B7D"/>
<path d="M20.8464 5.37289V15.0094H27.7192V13.0746H23.2584V5.37289H20.8464Z" fill="#767B7D"/>
<path d="M58.2656 10.1643V7.39564H61.0001V5.32566H58.2624V2.60098H56.2054V5.36963H53.5133V7.41844H56.238V10.1643H58.2656Z" fill="#767B7D"/>
<path d="M8.57817e-05 10.2327C-0.00486199 9.1513 0.204272 8.07959 0.615434 7.07938C1.0266 6.07916 1.63165 5.17021 2.39573 4.40492C3.15981 3.63963 4.0678 3.03313 5.06737 2.62039C6.06693 2.20764 7.1383 1.99681 8.21972 2.00005C10.3954 1.9927 12.4849 2.84994 14.0285 4.38318C15.5721 5.91641 16.4434 8.00005 16.4508 10.1757C16.4581 12.3514 15.6009 14.4408 14.0676 15.9845C12.5344 17.5281 10.4508 18.3994 8.2751 18.4067C7.19361 18.4186 6.12051 18.216 5.11779 17.8106C4.11507 17.4053 3.20263 16.8053 2.43318 16.0452C1.66373 15.2851 1.05253 14.3801 0.634912 13.3825C0.217292 12.3848 0.00152734 11.3143 8.57817e-05 10.2327ZM14.4606 10.5747C14.4899 13.5062 11.7848 16.2374 8.72297 16.4378C7.11623 16.5531 5.52619 16.0498 4.27844 15.031C3.0307 14.0121 2.21967 12.5548 2.01143 10.9574C1.6401 8.08294 3.60585 4.01953 8.53893 3.89576V3.28991C5.93314 2.98048 3.03094 4.77521 1.8616 7.36146C1.25402 8.70971 1.09478 10.2173 1.40726 11.6627C1.71974 13.1081 2.48747 14.4153 3.5977 15.3922C4.71308 16.3837 6.11565 16.9937 7.60149 17.1334C9.08734 17.2731 10.579 16.9353 11.8597 16.169C13.9769 14.9068 15.485 12.2799 15.1593 9.91188H10.218L10.275 10.578L14.4606 10.5747ZM7.93309 6.58135V13.8124H10.2441V13.1431H8.56499V6.58135H7.93309ZM6.61879 7.56829C6.61302 7.30364 6.50487 7.05153 6.31706 6.86497C6.12926 6.6784 5.87643 6.57193 5.61174 6.56792C5.34706 6.56391 5.09112 6.66269 4.89776 6.84348C4.70439 7.02427 4.58865 7.27299 4.57488 7.53735C4.57466 7.67359 4.60128 7.80853 4.65322 7.93448C4.70516 8.06043 4.7814 8.17492 4.87758 8.2714C4.97376 8.36789 5.08801 8.44448 5.21379 8.49682C5.33958 8.54915 5.47444 8.57619 5.61068 8.57641C5.8747 8.56596 6.1251 8.4564 6.31194 8.26956C6.49878 8.08272 6.60835 7.83232 6.61879 7.56829Z" fill="#C40853"/>
<path d="M37.6423 8.13017H35.131C34.3167 6.97385 33.592 6.61881 32.6522 7.06831C32.1807 7.28652 31.7911 7.64935 31.5399 8.10411C31.2156 8.76944 31.047 9.49988 31.047 10.24C31.047 10.9802 31.2156 11.7107 31.5399 12.376C31.7323 12.8307 32.0832 13.2 32.5274 13.4154C32.9717 13.6308 33.479 13.6775 33.9551 13.547C34.9176 13.3076 35.5153 12.4639 35.4974 11.2539L33.6164 11.1578V9.73273H37.7091V15.029H35.7368L35.6082 13.9427C35.3168 14.3575 34.9319 14.6979 34.4846 14.9364C34.0373 15.1749 33.5401 15.3048 33.0333 15.3156C30.8282 15.428 29.3022 14.3059 28.7289 12.1773C28.3748 10.9481 28.368 9.64477 28.7094 8.41192C29.2843 6.41035 30.851 5.18563 32.9438 5.10257C34.2727 5.05045 35.5365 5.24589 36.6049 6.12209C36.9081 6.36611 37.157 6.67078 37.3357 7.01657C37.5143 7.36237 37.6188 7.74167 37.6423 8.13017Z" fill="#767B7D"/>
<path d="M42.95 5.37778H45.2887C45.305 5.62858 45.3278 5.84193 45.3278 6.05691C45.3278 7.73602 45.3278 9.41349 45.3359 11.0926C45.3358 11.435 45.3768 11.7762 45.4581 12.1089C45.6926 13.0339 46.2724 13.4118 47.3293 13.3482C48.1762 13.301 48.7186 12.7912 48.8342 11.8825C48.8963 11.4028 48.93 10.9199 48.9352 10.4363C48.9482 8.98028 48.9352 7.5243 48.9352 6.06831C48.9352 5.85171 48.958 5.6351 48.9743 5.37778H51.2543C51.2967 5.54331 51.3245 5.71225 51.3374 5.88265C51.3374 7.78325 51.3732 9.68547 51.3178 11.5828C51.2494 13.8857 49.9221 15.2016 47.6078 15.2895C46.921 15.3227 46.2328 15.2585 45.5639 15.099C43.8946 14.6788 42.95 13.5258 42.8816 11.7098C42.805 9.69036 42.8637 7.66599 42.8669 5.64324C42.8849 5.55201 42.9128 5.463 42.95 5.37778Z" fill="#767B7D"/>
<path d="M20.8464 5.37289H23.26V13.0746H27.7192V15.0094H20.8464V5.37289Z" fill="#767B7D"/>
<path d="M58.2656 10.1643H56.238V7.41848H53.5133V5.36316H56.2054V2.59451H58.2624V5.32571H61.0001V7.40219H58.2656V10.1643Z" fill="#767B7D"/>
<path d="M14.4606 10.5747H10.2751L10.2181 9.90859H15.1593C15.485 12.2766 13.9834 14.9036 11.8597 16.1657C10.5794 16.9324 9.08792 17.2708 7.60208 17.1317C6.11624 16.9926 4.7135 16.3832 3.59775 15.3922C2.48861 14.4145 1.72213 13.1069 1.41083 11.6615C1.09954 10.2161 1.25982 8.70902 1.86816 7.36143C3.03099 4.77519 5.9397 2.98045 8.54549 3.28989V3.89573C3.60589 4.01951 1.64015 8.08291 2.01147 10.9574C2.22085 12.5539 3.03237 14.01 4.27999 15.0278C5.52761 16.0457 7.11702 16.5483 8.72301 16.4328C11.7848 16.2374 14.4948 13.503 14.4606 10.5747Z" fill="white"/>
<path d="M7.93311 6.58136H8.56501V13.1431H10.2441V13.8124H7.93311V6.58136Z" fill="white"/>
<path d="M6.61887 7.56829C6.60802 7.83203 6.49828 8.08202 6.31148 8.26852C6.12468 8.45502 5.87451 8.56436 5.61075 8.57477C5.33589 8.57434 5.07243 8.46485 4.87823 8.27034C4.68403 8.07583 4.57495 7.81221 4.57495 7.53734C4.58885 7.27293 4.70475 7.02421 4.89828 6.8435C5.0918 6.66279 5.34787 6.56418 5.61261 6.5684C5.87735 6.57262 6.13015 6.67934 6.31781 6.86613C6.50548 7.05291 6.6134 7.3052 6.61887 7.56992V7.56829Z" fill="white"/>
</svg>
