<svg xmlns="http://www.w3.org/2000/svg" viewBox="0 0 3 2">
  <rect width="3" height="2" fill="#012169"/>
  <g fill="#ffffff">
    <path d="M0,0 L1.5,1 L0,2 Z"/>
    <path d="M3,0 L1.5,1 L3,2 Z"/>
    <path d="M0,1 L3,1" stroke="#ffffff" stroke-width="0.1"/>
    <path d="M1.5,0 L1.5,2" stroke="#ffffff" stroke-width="0.1"/>
  </g>
  <g fill="#ffffff" transform="translate(0.3,0.3)">
    <circle cx="0" cy="0" r="0.15"/>
    <path d="M0,0 L0.05,-0.1 L0.1,0 L0.05,0.05 Z"/>
    <path d="M0,0 L0.05,0.1 L0.1,0 L0.05,-0.05 Z" transform="rotate(90 0.05 0)"/>
    <path d="M0,0 L0.05,-0.1 L0.1,0 L0.05,0.05 Z" transform="rotate(45 0.05 0)"/>
    <path d="M0,0 L0.05,-0.1 L0.1,0 L0.05,0.05 Z" transform="rotate(-45 0.05 0)"/>
  </g>
  <g fill="#ffffff" transform="translate(2.2,1.2)">
    <circle cx="0" cy="0" r="0.08"/>
    <circle cx="0.15" cy="0" r="0.08"/>
    <circle cx="0.3" cy="0" r="0.08"/>
    <circle cx="0.075" cy="0.13" r="0.08"/>
    <circle cx="0.225" cy="0.13" r="0.08"/>
  </g>
</svg>
























