<svg xmlns="http://www.w3.org/2000/svg" viewBox="0 0 3 2">
  <rect width="1" height="2" fill="#de2910"/>
  <rect x="1" width="1" height="2" fill="#de2910"/>
  <rect x="2" width="1" height="2" fill="#00785e"/>
  <g fill="#ffde00" transform="translate(0.5,1)">
    <circle cx="0" cy="0" r="0.1"/>
    <circle cx="0.2" cy="0" r="0.08"/>
    <circle cx="0.4" cy="0" r="0.08"/>
    <circle cx="0.1" cy="0.15" r="0.08"/>
    <circle cx="0.3" cy="0.15" r="0.08"/>
  </g>
  <g fill="#ffffff" transform="translate(1.5,1)">
    <circle cx="0" cy="0" r="0.12"/>
    <path d="M0,0 L0.05,-0.08 L0.1,0 L0.05,0.05 Z"/>
    <path d="M0,0 L0.05,0.08 L0.1,0 L0.05,-0.05 Z" transform="rotate(90 0.05 0)"/>
  </g>
  <g fill="#ffffff" transform="translate(2.5,1)">
    <circle cx="0" cy="0" r="0.12"/>
    <path d="M0,0 L0.05,-0.08 L0.1,0 L0.05,0.05 Z"/>
    <path d="M0,0 L0.05,0.08 L0.1,0 L0.05,-0.05 Z" transform="rotate(90 0.05 0)"/>
  </g>
</svg>













