<svg xmlns="http://www.w3.org/2000/svg" viewBox="0 0 3 2">
  <rect width="3" height="2" fill="#b22234"/>
  <g fill="#ffffff">
    <rect width="3" height="0.15"/>
    <rect y="0.3" width="3" height="0.15"/>
    <rect y="0.6" width="3" height="0.15"/>
    <rect y="0.9" width="3" height="0.15"/>
    <rect y="1.2" width="3" height="0.15"/>
    <rect y="1.5" width="3" height="0.15"/>
    <rect y="1.8" width="3" height="0.15"/>
  </g>
  <rect width="1.2" height="1.05" fill="#3c3b6e"/>
  <g fill="#ffffff" transform="translate(0.1,0.1)">
    <circle cx="0.1" cy="0.1" r="0.03"/>
    <circle cx="0.3" cy="0.1" r="0.03"/>
    <circle cx="0.5" cy="0.1" r="0.03"/>
    <circle cx="0.7" cy="0.1" r="0.03"/>
    <circle cx="0.9" cy="0.1" r="0.03"/>
    <circle cx="0.1" cy="0.25" r="0.03"/>
    <circle cx="0.3" cy="0.25" r="0.03"/>
    <circle cx="0.5" cy="0.25" r="0.03"/>
    <circle cx="0.7" cy="0.25" r="0.03"/>
    <circle cx="0.1" cy="0.4" r="0.03"/>
    <circle cx="0.3" cy="0.4" r="0.03"/>
    <circle cx="0.5" cy="0.4" r="0.03"/>
    <circle cx="0.7" cy="0.4" r="0.03"/>
    <circle cx="0.9" cy="0.4" r="0.03"/>
  </g>
</svg>























