<svg width="32" height="32" viewBox="0 0 32 32" fill="none" xmlns="http://www.w3.org/2000/svg">
    <path d="M13 11C13 10.4477 13.4477 10 14 10H18C18.5523 10 19 10.4477 19 11C19 11.5523 18.5523 12 18 12H15V20H18C18.5523 20 19 20.4477 19 21C19 21.5523 18.5523 22 18 22H14C13.4477 22 13 21.5523 13 21V11Z" fill="#868E96"/>
    <path d="M16 4C9.37258 4 4 9.37258 4 16C4 22.6274 9.37258 28 16 28C22.6274 28 28 22.6274 28 16C28 9.37258 22.6274 4 16 4Z" fill="none" stroke="#868E96" stroke-width="2"/>
</svg>














