<svg width="24" height="24" viewBox="0 0 24 24" fill="none" xmlns="http://www.w3.org/2000/svg">
<g clip-path="url(#clip0_1333_618)">
<path d="M24 12C24 18.6274 18.6274 24 12 24C5.37262 24 0 18.6274 0 12C0 12.0028 12 0.00135937 12 0C18.6274 0 24 5.37262 24 12Z" fill="#0052B4"/>
<path d="M11.9678 12.0004H11.9999C11.9999 11.9895 11.9999 11.9791 11.9999 11.9682C11.9892 11.979 11.9785 11.9897 11.9678 12.0004Z" fill="#F0F0F0"/>
<path d="M11.9997 6.26167C11.9997 4.15018 11.9997 2.76657 11.9997 0.000808716H11.9977C5.37125 0.00188684 -0.000244141 5.37399 -0.000244141 12.0008H6.26061V8.4752L9.78617 12.0008H11.9677C11.9784 11.9901 11.9891 11.9794 11.9998 11.9687C11.9998 11.1602 11.9998 10.4388 11.9998 9.78728L8.47419 6.26167H11.9997Z" fill="#F0F0F0"/>
<path d="M6.07114 1.5657C4.19431 2.63441 2.63403 4.19469 1.56532 6.07152V12.0005H4.69578V4.6962V4.69616H12.0001C12.0001 3.70883 12.0001 2.76824 12.0001 1.5657H6.07114Z" fill="#D80027"/>
<path d="M12.0004 10.5249L7.73698 6.26151H6.26131C6.26131 6.26146 6.26131 6.26151 6.26131 6.26151L12.0003 12.0006H12.0004C12.0004 12.0006 12.0004 10.9831 12.0004 10.5249Z" fill="#D80027"/>
<path d="M7.23755 14.0865L7.89614 15.4635L9.38335 15.1198L8.71735 16.4933L9.91331 17.4418L8.42424 17.7774L8.42841 19.3038L7.23755 18.3488L6.04674 19.3038L6.05091 17.7774L4.56178 17.4418L5.7578 16.4933L5.0917 15.1198L6.579 15.4635L7.23755 14.0865Z" fill="#F0F0F0"/>
<path d="M17.9671 16.6954L18.2964 17.3839L19.04 17.212L18.707 17.8988L19.305 18.373L18.5604 18.5408L18.5625 19.3041L17.9671 18.8265L17.3717 19.3041L17.3737 18.5408L16.6292 18.373L17.2272 17.8988L16.8942 17.212L17.6378 17.3839L17.9671 16.6954Z" fill="#F0F0F0"/>
<path d="M14.9034 9.39142L15.2327 10.08L15.9763 9.90807L15.6433 10.5948L16.2413 11.0691L15.4968 11.2369L15.4988 12.0001L14.9034 11.5226L14.308 12.0001L14.31 11.2369L13.5655 11.0691L14.1635 10.5948L13.8305 9.90807L14.5741 10.08L14.9034 9.39142Z" fill="#F0F0F0"/>
<path d="M17.9671 5.21762L18.2964 5.90622L19.04 5.73432L18.707 6.42109L19.3049 6.89528L18.5604 7.06314L18.5625 7.82636L17.9671 7.34884L17.3717 7.82636L17.3737 7.06314L16.6292 6.89528L17.2272 6.42109L16.8942 5.73432L17.6378 5.90622L17.9671 5.21762Z" fill="#F0F0F0"/>
<path d="M20.6422 8.34778L20.9714 9.03637L21.7151 8.86443L21.3821 9.5512L21.9801 10.0254L21.2355 10.1933L21.2376 10.9565L20.6422 10.479L20.0468 10.9565L20.0488 10.1933L19.3043 10.0254L19.9023 9.5512L19.5693 8.86443L20.3129 9.03637L20.6422 8.34778Z" fill="#F0F0F0"/>
<path d="M18.7292 12.0003L18.9882 12.7975H19.8264L19.1483 13.2902L19.4074 14.0873L18.7292 13.5946L18.0511 14.0873L18.3101 13.2902L17.632 12.7975H18.4702L18.7292 12.0003Z" fill="#F0F0F0"/>
</g>
<defs>
<clipPath id="clip0_1333_618">
<rect width="24" height="24" fill="white"/>
</clipPath>
</defs>
</svg>
