<svg width="24" height="24" viewBox="0 0 24 24" fill="none" xmlns="http://www.w3.org/2000/svg">
<g clip-path="url(#clip0_1333_634)">
<path d="M23.2541 16.173C23.7365 14.8731 24.0005 13.467 24.0005 11.9992C24.0005 10.5313 23.7365 9.1253 23.2541 7.82527L12.0005 6.78178L0.746848 7.82527C0.264505 9.1253 0.000457764 10.5313 0.000457764 11.9992C0.000457764 13.467 0.264505 14.8731 0.746848 16.173L12.0005 17.2165L23.2541 16.173Z" fill="#F0F0F0"/>
<path d="M12.0006 23.9995C17.1601 23.9995 21.5587 20.743 23.2542 16.1734H0.746933C2.4425 20.743 6.84096 23.9995 12.0006 23.9995Z" fill="#D80027"/>
<path d="M12.0002 0C6.8406 0 2.44213 3.2565 0.746567 7.82611H23.2538C21.5583 3.2565 17.1598 0 12.0002 0Z" fill="#D80027"/>
</g>
<defs>
<clipPath id="clip0_1333_634">
<rect width="24" height="24" fill="white"/>
</clipPath>
</defs>
</svg>
