<svg width="24" height="24" viewBox="0 0 24 24" fill="none" xmlns="http://www.w3.org/2000/svg">
<g clip-path="url(#clip0_1333_925)">
<path d="M12 24C18.6274 24 24 18.6274 24 12C24 5.37258 18.6274 0 12 0C5.37258 0 0 5.37258 0 12C0 18.6274 5.37258 24 12 24Z" fill="#F0F0F0"/>
<path d="M24.0008 12.0011C24.0008 7.24352 21.2322 3.13277 17.2182 1.19177V22.8103C21.2322 20.8693 24.0008 16.7586 24.0008 12.0011Z" fill="#D80027"/>
<path d="M0.000450134 12.0004C0.000450134 16.7579 2.76912 20.8687 6.78307 22.8097V1.19112C2.76912 3.13212 0.000450134 7.24287 0.000450134 12.0004Z" fill="#D80027"/>
<path d="M14.0875 13.5662L16.1745 12.5227L15.131 12.001V10.9575L13.0441 12.001L14.0875 9.91403H13.0441L12.0006 8.34883L10.9571 9.91403H9.9136L10.9571 12.001L8.87011 10.9575V12.001L7.82668 12.5227L9.9136 13.5662L9.39188 14.6097H11.4788V16.1749H12.5223V14.6097H14.6093L14.0875 13.5662Z" fill="#D80027"/>
</g>
<defs>
<clipPath id="clip0_1333_925">
<rect width="24" height="24" fill="white"/>
</clipPath>
</defs>
</svg>
