<svg width="24" height="24" viewBox="0 0 24 24" fill="none" xmlns="http://www.w3.org/2000/svg">
<g clip-path="url(#clip0_1333_974)">
<path d="M12 24C18.6274 24 24 18.6274 24 12C24 5.37258 18.6274 0 12 0C5.37258 0 0 5.37258 0 12C0 18.6274 5.37258 24 12 24Z" fill="#D80027"/>
<path d="M6.56735 7.30148L7.60329 10.489H10.9548L8.24547 12.4624L9.28141 15.6499L6.56735 13.6812L3.85329 15.6499L4.89391 12.4624L2.17985 10.489H5.53141L6.56735 7.30148Z" fill="#FFDA44"/>
<path d="M14.2262 18.5846L13.434 17.6096L12.2622 18.0643L12.9419 17.0096L12.1497 16.03L13.3637 16.3534L14.0481 15.2987L14.1137 16.555L15.3325 16.8784L14.1559 17.3284L14.2262 18.5846Z" fill="#FFDA44"/>
<path d="M15.8018 15.7253L16.1768 14.5253L15.1502 13.7987L16.4065 13.78L16.7768 12.58L17.1846 13.7706L18.4408 13.7565L17.433 14.5065L17.8361 15.6972L16.8096 14.9706L15.8018 15.7253Z" fill="#FFDA44"/>
<path d="M17.9254 8.80662L17.3722 9.93631L18.2722 10.8129L17.0301 10.6348L16.4769 11.7598L16.2613 10.5223L15.0144 10.3441L16.1301 9.75819L15.9144 8.516L16.8144 9.39256L17.9254 8.80662Z" fill="#FFDA44"/>
<path d="M14.2592 5.38507L14.1654 6.63664L15.3326 7.11007L14.1092 7.41007L14.0201 8.66632L13.3592 7.59757L12.1357 7.89757L12.9467 6.93664L12.281 5.87257L13.4482 6.34601L14.2592 5.38507Z" fill="#FFDA44"/>
</g>
<defs>
<clipPath id="clip0_1333_974">
<rect width="24" height="24" fill="white"/>
</clipPath>
</defs>
</svg>
