<svg width="24" height="24" viewBox="0 0 24 24" fill="none" xmlns="http://www.w3.org/2000/svg">
<g clip-path="url(#clip0_1333_1103)">
<path d="M12 24C18.6274 24 24 18.6274 24 12C24 5.37258 18.6274 0 12 0C5.37258 0 0 5.37258 0 12C0 18.6274 5.37258 24 12 24Z" fill="#F0F0F0"/>
<path d="M9.39195 10.4349H23.899C23.132 4.54709 18.0975 0.00012207 12.0006 0.00012207C11.1046 0.00012207 10.2319 0.099169 9.39191 0.285356V10.4349H9.39195Z" fill="#D80027"/>
<path d="M6.26144 10.4357V1.46002C2.96645 3.25787 0.607609 6.55557 0.102156 10.4357H6.26144V10.4357Z" fill="#D80027"/>
<path d="M6.26095 13.5656H0.101715C0.607169 17.4457 2.96601 20.7434 6.261 22.5412L6.26095 13.5656Z" fill="#D80027"/>
<path d="M9.39191 13.5656V23.7151C10.2319 23.9013 11.1046 24.0003 12.0006 24.0003C18.0975 24.0003 23.132 19.4534 23.899 13.5656H9.39191V13.5656Z" fill="#D80027"/>
</g>
<defs>
<clipPath id="clip0_1333_1103">
<rect width="24" height="24" fill="white"/>
</clipPath>
</defs>
</svg>
