<svg width="24" height="24" viewBox="0 0 24 24" fill="none" xmlns="http://www.w3.org/2000/svg">
<g clip-path="url(#clip0_477_1245)">
<path d="M12.0018 24.0035C18.6302 24.0035 24.0035 18.6302 24.0035 12.0018C24.0035 5.37337 18.6302 0 12.0018 0C5.37337 0 0 5.37337 0 12.0018C0 18.6302 5.37337 24.0035 12.0018 24.0035Z" fill="#253E8D"/>
<path d="M8.54626 16.8911L8.80212 17.6867H9.6398L8.96335 18.1774L9.22271 18.973L8.54626 18.4824L7.8663 18.973L8.12567 18.1774L7.44922 17.6867H8.2869L8.54626 16.8911Z" fill="#FCC91A"/>
<path d="M15.4549 16.8911L15.7142 17.6867H16.5519L15.8755 18.1774L16.1348 18.973L15.4549 18.4824L14.7784 18.973L15.0378 18.1774L14.3613 17.6867H15.199L15.4549 16.8911Z" fill="#FCC91A"/>
<path d="M8.54626 4.9292L8.80212 5.72482H9.6398L8.96335 6.21551L9.22271 7.01113L8.54626 6.52044L7.8663 7.01113L8.12567 6.21551L7.44922 5.72482H8.2869L8.54626 4.9292Z" fill="#FCC91A"/>
<path d="M15.4549 4.9292L15.7142 5.72482H16.5519L15.8755 6.21551L16.1348 7.01113L15.4549 6.52044L14.7784 7.01113L15.0378 6.21551L14.3613 5.72482H15.199L15.4549 4.9292Z" fill="#FCC91A"/>
<path d="M17.9847 7.45605L18.2406 8.25167H19.0783L18.4018 8.74236L18.6612 9.53798L17.9847 9.04729L17.3083 9.53798L17.5641 8.74236L16.8877 8.25167H17.7254L17.9847 7.45605Z" fill="#FCC91A"/>
<path d="M6.01541 7.45605L6.27478 8.25167H7.11246L6.436 8.74236L6.69186 9.53798L6.01541 9.04729L5.33896 9.53798L5.59833 8.74236L4.92188 8.25167H5.75955L6.01541 7.45605Z" fill="#FCC91A"/>
<path d="M17.9847 14.3643L18.2406 15.1599H19.0783L18.4018 15.6541L18.6612 16.4497L17.9847 15.9555L17.3083 16.4497L17.5641 15.6541L16.8877 15.1599H17.7254L17.9847 14.3643Z" fill="#FCC91A"/>
<path d="M6.01541 14.3643L6.27478 15.1599H7.11246L6.436 15.6541L6.69186 16.4497L6.01541 15.9555L5.33896 16.4497L5.59833 15.6541L4.92188 15.1599H5.75955L6.01541 14.3643Z" fill="#FCC91A"/>
<path d="M11.9984 4L12.2543 4.79562H13.0919L12.4155 5.28631L12.6749 6.08193L11.9984 5.59124L11.3185 6.08193L11.5778 5.28631L10.9014 4.79562H11.739L11.9984 4Z" fill="#FCC91A"/>
<path d="M11.9984 17.8198L12.2543 18.6154H13.0919L12.4155 19.1061L12.6749 19.9018L11.9984 19.4111L11.3185 19.9018L11.5778 19.1061L10.9014 18.6154H11.739L11.9984 17.8198Z" fill="#FCC91A"/>
<path d="M18.9066 10.9048L19.166 11.7004H20.0002L19.3237 12.1911L19.5831 12.9867L18.9066 12.496L18.2302 12.9867L18.486 12.1911L17.8096 11.7004H18.6472L18.9066 10.9048Z" fill="#FCC91A"/>
<path d="M5.09354 10.9048L5.3529 11.7004H6.19058L5.51413 12.1911L5.76999 12.9867L5.09354 12.496L4.41709 12.9867L4.67645 12.1911L4 11.7004H4.83768L5.09354 10.9048Z" fill="#FCC91A"/>
</g>
<defs>
<clipPath id="clip0_477_1245">
<rect width="24" height="24" fill="white"/>
</clipPath>
</defs>
</svg>
