<svg width="24" height="24" viewBox="0 0 24 24" fill="none" xmlns="http://www.w3.org/2000/svg">
<g clip-path="url(#clip0_477_1258)">
<path d="M12.0018 24.0035C18.6302 24.0035 24.0035 18.6302 24.0035 12.0018C24.0035 5.37337 18.6302 0 12.0018 0C5.37337 0 0 5.37337 0 12.0018C0 18.6302 5.37337 24.0035 12.0018 24.0035Z" fill="#3C96DF"/>
<path d="M18.3624 18.3624C16.6633 20.0616 14.4019 21 12 21C9.59807 21 7.3367 20.0616 5.63757 18.3624C3.93845 16.6633 3 14.4019 3 12C3 9.59807 3.93845 7.3367 5.63757 5.63757C7.3367 3.93845 9.59807 3 12 3C14.4019 3 16.6633 3.93845 18.3624 5.63757C20.0616 7.3367 21 9.59807 21 12C21 14.4019 20.0616 16.6633 18.3624 18.3624ZM6.03032 6.03032C4.43454 7.62609 3.55811 9.74276 3.56224 11.9959C3.56638 14.249 4.43454 16.3656 6.03032 17.9614C7.62609 19.5572 9.74276 20.4336 11.9959 20.4295C14.249 20.4295 16.3656 19.5572 17.9614 17.9614C19.5572 16.3656 20.4336 14.249 20.4295 11.9959C20.4295 9.74276 19.5572 7.62609 17.9614 6.03032C16.3656 4.43454 14.249 3.55811 11.9959 3.56224C9.74276 3.56224 7.62609 4.43454 6.03032 6.03032Z" fill="white"/>
<path d="M13.347 19.9168C12.9832 20.2806 12.5863 20.6279 12.1647 20.9421C12.0613 21.0207 11.9249 21.0207 11.8257 20.9421C9.98598 19.5654 8.67959 17.7175 7.94372 15.4478C7.39388 13.757 7.35254 12.3803 7.35254 12C7.35254 9.70141 8.04707 7.54752 9.4196 5.60035C10.4407 4.14927 11.5197 3.28937 11.8215 3.05786C11.9249 2.97931 12.0572 2.98345 12.1605 3.05786C12.4665 3.28937 13.5413 4.14514 14.5625 5.60035C15.935 7.54752 16.6295 9.70554 16.6295 12C16.6295 12.3803 16.5841 13.757 16.0383 15.4478C15.4802 17.1924 14.5749 18.689 13.347 19.9168ZM11.9952 20.3592C13.653 19.0693 14.8312 17.3537 15.5092 15.2701C16.0342 13.6578 16.0714 12.3596 16.0714 11.9958C16.0714 9.81303 15.41 7.77077 14.1077 5.91454C13.2726 4.72805 12.4086 3.96323 11.9952 3.62837C11.5818 3.96323 10.7177 4.72805 9.88263 5.91454C8.58037 7.77077 7.91891 9.80889 7.91891 11.9958C7.91891 12.3514 7.96026 13.6619 8.48116 15.2701C9.15915 17.3619 10.3415 19.0693 11.9952 20.3592Z" fill="white"/>
<path d="M20.9132 12.1986C20.8594 12.2523 20.7933 12.2813 20.7147 12.2854H3.28112C3.12816 12.2854 3 12.1614 3 12.0043C3 11.8472 3.12402 11.7231 3.28112 11.7231H20.7189C20.8718 11.7231 21 11.8472 21 12.0043C21 12.0787 20.9711 12.1448 20.9173 12.1986H20.9132Z" fill="white"/>
<path d="M18.8752 6.59235C18.8463 6.62129 18.8174 6.64196 18.776 6.6585C17.6639 7.08845 16.5023 7.41505 15.3282 7.62589C14.2326 7.82019 13.1123 7.92768 11.9961 7.92354C10.8798 7.91941 9.75949 7.82019 8.66395 7.62589C7.48986 7.41091 6.32816 7.08432 5.21608 6.6585C5.07139 6.60062 4.99697 6.43939 5.05485 6.2947C5.11273 6.15 5.27396 6.07559 5.41866 6.13347C6.5018 6.55101 7.62628 6.86521 8.76317 7.07605C9.82564 7.27035 10.9088 7.36544 11.9919 7.36957C13.0709 7.36957 14.1582 7.27035 15.2207 7.07605C16.3617 6.86934 17.4862 6.55515 18.5652 6.13347C18.7099 6.07559 18.8752 6.15 18.929 6.2947C18.9786 6.40218 18.9497 6.51794 18.8711 6.59649L18.8752 6.59235Z" fill="white"/>
<path d="M18.8741 17.7998C18.7955 17.8784 18.6798 17.9073 18.5723 17.866C17.4891 17.4484 16.3605 17.1301 15.2236 16.9275C14.1612 16.7332 13.078 16.6382 11.999 16.6382C10.92 16.6382 9.83274 16.7374 8.7744 16.9275C7.63338 17.1342 6.5089 17.4484 5.42576 17.866C5.28106 17.9239 5.1157 17.8495 5.06195 17.7048C5.00821 17.5601 5.07849 17.3947 5.22318 17.341C6.34353 16.911 7.50109 16.5803 8.67518 16.3694C9.77073 16.1751 10.8869 16.0718 11.999 16.0718C13.1111 16.0718 14.2315 16.171 15.3229 16.3694C16.5011 16.5803 17.6586 16.9069 18.7749 17.341C18.9196 17.3988 18.994 17.5601 18.9361 17.7048C18.9196 17.7461 18.8989 17.775 18.8699 17.804L18.8741 17.7998Z" fill="white"/>
<path d="M12.1983 20.913C12.1446 20.9667 12.0784 20.9956 11.9999 20.9998C11.8469 20.9998 11.7188 20.8757 11.7188 20.7186V3.28503C11.7188 3.13206 11.8428 3.00391 11.9999 3.00391C12.157 3.00391 12.281 3.12793 12.281 3.28503V20.7186C12.281 20.7972 12.2479 20.8675 12.1983 20.9171V20.913Z" fill="white"/>
</g>
<defs>
<clipPath id="clip0_477_1258">
<rect width="24" height="24" fill="white"/>
</clipPath>
</defs>
</svg>
