<svg width="24" height="24" viewBox="0 0 24 24" fill="none" xmlns="http://www.w3.org/2000/svg">
<g clip-path="url(#clip0_1333_1317)">
<path d="M5.23631 21.9123C7.16213 23.2288 9.49088 23.9993 11.9998 23.9993C14.5087 23.9993 16.8374 23.2288 18.7632 21.9123L11.9998 20.8688L5.23631 21.9123Z" fill="#D80027"/>
<path d="M18.7641 2.08688C16.8382 0.770392 14.5095 -9.15527e-05 12.0006 -9.15527e-05C9.49175 -9.15527e-05 7.163 0.770392 5.23719 2.08688L12.0006 3.13036L18.7641 2.08688Z" fill="#D80027"/>
<path d="M23.9996 12.0004C23.9996 8.02965 21.6223 4.042 18.763 2.0874H5.23614C2.07475 4.24853 -0.00041008 7.882 -0.00041008 12.0004C-0.00041008 16.119 2.07475 19.7523 5.23614 21.9135H18.763C21.9245 19.7523 23.9996 16.119 23.9996 12.0004Z" fill="#0052B4"/>
<path d="M11.3208 19.5749C11.1568 19.4342 7.30422 16.0851 7.30422 12C7.30422 7.91489 11.1568 4.56572 11.3208 4.42514L11.9999 3.84305L12.679 4.42509C12.8429 4.56572 16.6955 7.91484 16.6955 12C16.6955 16.0852 12.843 19.4343 12.679 19.5749L11.9999 20.157L11.3208 19.5749Z" fill="#D80027"/>
<path d="M15.6524 12C15.6524 8.3478 12.0002 5.21735 12.0002 5.21735C12.0002 5.21735 8.34806 8.34789 8.34806 12C8.34806 13.1172 8.69011 14.1855 9.16458 15.1304H14.8359C15.3104 14.1855 15.6524 13.1172 15.6524 12Z" fill="#338AF3"/>
<path d="M15.6524 12.0005C15.6524 13.1177 15.3104 14.186 14.8359 15.1309L12.0002 15.6526L9.16458 15.1309C8.69011 14.186 8.34806 13.1177 8.34806 12.0005H15.6524Z" fill="#0052B4"/>
<path d="M12.0001 18.7824C12.0001 18.7824 13.7592 17.2741 14.8357 15.1302H9.16444C10.241 17.2741 12.0001 18.7824 12.0001 18.7824Z" fill="#FFDA44"/>
<path d="M9.65165 9.91257H14.3473L11.9995 12.2604L9.65165 9.91257Z" fill="#6DA544"/>
<path d="M12.7827 11.4773H11.2175V16.1729H12.7827V11.4773Z" fill="#A2001D"/>
</g>
<defs>
<clipPath id="clip0_1333_1317">
<rect width="24" height="24" fill="white"/>
</clipPath>
</defs>
</svg>
