<svg width="24" height="24" viewBox="0 0 24 24" fill="none" xmlns="http://www.w3.org/2000/svg">
<g clip-path="url(#clip0_1333_1376)">
<path d="M12 24C18.6274 24 24 18.6274 24 12C24 5.37258 18.6274 0 12 0C5.37258 0 0 5.37258 0 12C0 18.6274 5.37258 24 12 24Z" fill="#D80027"/>
<path d="M13.2391 9.07757C12.9664 10.2119 12.4819 9.99557 12.2441 10.9848C10.8433 10.648 9.98061 9.23943 10.3174 7.83857C10.6541 6.43781 12.0628 5.57512 13.4636 5.91192C12.988 7.89037 13.4831 8.06306 13.2391 9.07757Z" fill="#F0F0F0"/>
<path d="M9.60422 9.9176C10.5988 10.5274 10.2433 10.9215 11.1105 11.4534C10.3574 12.6816 8.75119 13.0667 7.52297 12.3135C6.2948 11.5604 5.90963 9.95411 6.66281 8.72594C8.39747 9.78963 8.71458 9.37212 9.60422 9.9176Z" fill="#F0F0F0"/>
<path d="M9.28002 13.635C10.1674 12.8776 10.4322 13.3374 11.2061 12.677C12.1415 13.7728 12.0113 15.4194 10.9156 16.3548C9.81973 17.2902 8.17311 17.1599 7.23786 16.0642C8.78539 14.7431 8.48628 14.3124 9.28002 13.635Z" fill="#F0F0F0"/>
<path d="M12.7152 15.0915C12.2689 14.0136 12.7881 13.9037 12.3991 12.9637C13.7303 12.4128 15.2562 13.0453 15.8072 14.3765C16.3581 15.7077 15.7255 17.2335 14.3943 17.7845C13.6163 15.9044 13.1143 16.0558 12.7152 15.0915Z" fill="#F0F0F0"/>
<path d="M15.1621 12.274C13.999 12.3653 14.0548 11.8375 13.0406 11.917C12.928 10.4808 14.0012 9.22501 15.4375 9.11228C16.8737 8.99982 18.1295 10.0729 18.2421 11.5092C16.2135 11.6683 16.2023 12.1925 15.1621 12.274Z" fill="#F0F0F0"/>
</g>
<defs>
<clipPath id="clip0_1333_1376">
<rect width="24" height="24" fill="white"/>
</clipPath>
</defs>
</svg>
