<svg width="24" height="24" viewBox="0 0 24 24" fill="none" xmlns="http://www.w3.org/2000/svg">
<g clip-path="url(#clip0_1333_1396)">
<path d="M12 24C18.6274 24 24 18.6274 24 12C24 5.37258 18.6274 0 12 0C5.37258 0 0 5.37258 0 12C0 18.6274 5.37258 24 12 24Z" fill="#F0F0F0"/>
<path d="M12 -0.000946045C7.24249 -0.000946045 3.13174 2.76773 1.19074 6.78168H22.8093C20.8683 2.76773 16.7575 -0.000946045 12 -0.000946045Z" fill="#FF9811"/>
<path d="M12 23.9997C16.7575 23.9997 20.8683 21.231 22.8093 17.217H1.19074C3.13174 21.231 7.24249 23.9997 12 23.9997Z" fill="#6DA544"/>
<path d="M12.0004 16.1732C14.3055 16.1732 16.1743 14.3045 16.1743 11.9993C16.1743 9.69412 14.3055 7.82541 12.0004 7.82541C9.69518 7.82541 7.82647 9.69412 7.82647 11.9993C7.82647 14.3045 9.69518 16.1732 12.0004 16.1732Z" fill="#0052B4"/>
<path d="M12.0001 14.608C13.4409 14.608 14.6088 13.4401 14.6088 11.9994C14.6088 10.5586 13.4409 9.39067 12.0001 9.39067C10.5594 9.39067 9.39145 10.5586 9.39145 11.9994C9.39145 13.4401 10.5594 14.608 12.0001 14.608Z" fill="#F0F0F0"/>
<path d="M12.0004 8.78088L12.8052 10.6061L14.7882 10.3904L13.6099 12L14.7882 13.6095L12.8052 13.3939L12.0004 15.2191L11.1956 13.3939L9.21256 13.6095L10.3908 12L9.21256 10.3904L11.1956 10.6061L12.0004 8.78088Z" fill="#0052B4"/>
</g>
<defs>
<clipPath id="clip0_1333_1396">
<rect width="24" height="24" fill="white"/>
</clipPath>
</defs>
</svg>
