<svg width="24" height="24" viewBox="0 0 24 24" fill="none" xmlns="http://www.w3.org/2000/svg">
<g clip-path="url(#clip0_1333_1419)">
<path d="M12 24C18.6274 24 24 18.6274 24 12C24 5.37258 18.6274 0 12 0C5.37258 0 0 5.37258 0 12C0 18.6274 5.37258 24 12 24Z" fill="#F0F0F0"/>
<path d="M23.9996 11.9991C23.9996 6.83955 20.7431 2.44098 16.1735 0.745514V23.2528C20.7431 21.5572 23.9996 17.1587 23.9996 11.9991Z" fill="#FF9811"/>
<path d="M-3.24249e-05 11.9996C-3.24249e-05 17.1593 3.25647 21.5577 7.82608 23.2533V0.746063C3.25647 2.44153 -3.24249e-05 6.8401 -3.24249e-05 11.9996Z" fill="#6DA544"/>
</g>
<defs>
<clipPath id="clip0_1333_1419">
<rect width="24" height="24" fill="white"/>
</clipPath>
</defs>
</svg>
