<svg width="24" height="24" viewBox="0 0 24 24" fill="none" xmlns="http://www.w3.org/2000/svg">
<g clip-path="url(#clip0_1333_1499)">
<path d="M22.8093 6.78189C20.8683 2.76794 16.7576 -0.000732422 12 -0.000732422C7.24251 -0.000732422 3.13176 2.76794 1.19076 6.78189L12 7.82538L22.8093 6.78189Z" fill="#D80027"/>
<path d="M1.1905 17.2162C3.1315 21.2301 7.24225 23.9988 11.9998 23.9988C16.7573 23.9988 20.8681 21.2301 22.8091 17.2162L11.9998 16.1727L1.1905 17.2162Z" fill="#D80027"/>
<path d="M22.809 6.7818H1.19042C0.427577 8.35938 -0.000297546 10.1293 -0.000297546 11.9992C-0.000297546 13.8691 0.427577 15.639 1.19042 17.2166H22.8089C23.5719 15.639 23.9997 13.8691 23.9997 11.9992C23.9997 10.1293 23.5719 8.35938 22.809 6.7818Z" fill="#0052B4"/>
<path d="M12.0001 16.1736C14.3053 16.1736 16.174 14.3049 16.174 11.9997C16.174 9.69455 14.3053 7.82584 12.0001 7.82584C9.69497 7.82584 7.82626 9.69455 7.82626 11.9997C7.82626 14.3049 9.69497 16.1736 12.0001 16.1736Z" fill="#F0F0F0"/>
</g>
<defs>
<clipPath id="clip0_1333_1499">
<rect width="24" height="24" fill="white"/>
</clipPath>
</defs>
</svg>
