<svg width="24" height="24" viewBox="0 0 24 24" fill="none" xmlns="http://www.w3.org/2000/svg">
<g clip-path="url(#clip0_1333_1589)">
<path d="M12 24C18.6274 24 24 18.6274 24 12C24 5.37258 18.6274 0 12 0C5.37258 0 0 5.37258 0 12C0 18.6274 5.37258 24 12 24Z" fill="#D80027"/>
<path d="M19.826 6.26099H4.1738V17.7393H19.826V6.26099Z" fill="#6DA544"/>
<path d="M13.9322 15.3913C12.0593 15.3913 10.5409 13.8729 10.5409 12C10.5409 10.127 12.0593 8.60867 13.9322 8.60867C14.5162 8.60867 15.0657 8.75633 15.5454 9.0163C14.7929 8.28032 13.7637 7.82605 12.6279 7.82605C10.3228 7.82605 8.454 9.69477 8.454 11.9999C8.454 14.3051 10.3228 16.1738 12.6279 16.1738C13.7637 16.1738 14.7929 15.7196 15.5454 14.9836C15.0657 15.2436 14.5162 15.3913 13.9322 15.3913Z" fill="#F0F0F0"/>
</g>
<defs>
<clipPath id="clip0_1333_1589">
<rect width="24" height="24" fill="white"/>
</clipPath>
</defs>
</svg>
