<svg width="24" height="24" viewBox="0 0 24 24" fill="none" xmlns="http://www.w3.org/2000/svg">
<g clip-path="url(#clip0_1333_1652)">
<path d="M11.9996 24.0006C13.4675 24.0006 14.8736 23.7366 16.1735 23.2542L16.6953 12.0006L16.1736 0.74697C14.8736 0.264627 13.4675 0.000579834 11.9996 0.000579834C10.5318 0.000579834 9.12569 0.264627 7.82575 0.74697L7.30399 12.0006L7.8257 23.2542C9.12569 23.7366 10.5318 24.0006 11.9996 24.0006Z" fill="#0052B4"/>
<path d="M-0.000213623 12C-0.000213623 17.1596 3.25629 21.5581 7.8259 23.2536V0.746429C3.25629 2.44195 -0.000213623 6.84046 -0.000213623 12Z" fill="#A2001D"/>
<path d="M16.1736 0.745972V23.2532C20.7432 21.5577 23.9997 17.1592 23.9997 11.9996C23.9997 6.84 20.7432 2.44149 16.1736 0.745972Z" fill="#A2001D"/>
<path d="M6.78254 11.9989H5.73906V16.1728H6.78254V11.9989Z" fill="#FFDA44"/>
<path d="M2.60865 11.9989H1.56517V16.1728H2.60865V11.9989Z" fill="#FFDA44"/>
<path d="M4.17363 14.6085C4.74993 14.6085 5.21711 14.1413 5.21711 13.565C5.21711 12.9887 4.74993 12.5215 4.17363 12.5215C3.59733 12.5215 3.13014 12.9887 3.13014 13.565C3.13014 14.1413 3.59733 14.6085 4.17363 14.6085Z" fill="#FFDA44"/>
<path d="M4.17379 10.4336C4.46193 10.4336 4.69551 10.2001 4.69551 9.91192C4.69551 9.62378 4.46193 9.3902 4.17379 9.3902C3.88565 9.3902 3.65207 9.62378 3.65207 9.91192C3.65207 10.2001 3.88565 10.4336 4.17379 10.4336Z" fill="#FFDA44"/>
<path d="M5.21722 15.1289H3.13025V16.1724H5.21722V15.1289Z" fill="#FFDA44"/>
<path d="M5.21722 10.9551H3.13025V11.9986H5.21722V10.9551Z" fill="#FFDA44"/>
<path d="M4.1743 6.26004L4.54387 7.39723H5.73955L4.77229 8.10007L5.14157 9.23726L4.1743 8.53442L3.20708 9.23726L3.57637 8.10007L2.6091 7.39723H3.80479L4.1743 6.26004Z" fill="#FFDA44"/>
</g>
<defs>
<clipPath id="clip0_1333_1652">
<rect width="24" height="24" fill="white"/>
</clipPath>
</defs>
</svg>
