<svg width="24" height="24" viewBox="0 0 24 24" fill="none" xmlns="http://www.w3.org/2000/svg">
<g clip-path="url(#clip0_1333_1729)">
<path d="M24 12C24 18.6274 18.6274 24 12 24C5.37262 24 0 18.6274 0 12C0 12.0029 12 0.0013125 12 0C18.6274 0 24 5.37262 24 12Z" fill="#0052B4"/>
<path d="M11.9684 12.0005H12.0005C12.0005 11.9897 12.0005 11.9792 12.0005 11.9683C11.9898 11.9791 11.9791 11.9898 11.9684 12.0005Z" fill="#F0F0F0"/>
<path d="M12.0003 6.26092C12.0003 4.14944 12.0003 2.76592 12.0003 6.10352e-05H11.9983C5.37185 0.00118604 0.000350952 5.3733 0.000350952 12.0001H6.26121V8.47455L9.78677 12.0001H11.9683C11.979 11.9894 11.9897 11.9787 12.0004 11.968C12.0004 11.1595 12.0004 10.4381 12.0004 9.78653L8.47478 6.26092H12.0003Z" fill="#F0F0F0"/>
<path d="M6.07114 1.565C4.19431 2.63371 2.63403 4.19399 1.56532 6.07082V11.9998H4.69578V4.69555V4.69546H12.0001C12.0001 3.70813 12.0001 2.76753 12.0001 1.565H6.07114Z" fill="#D80027"/>
<path d="M12.0004 10.5247L7.73698 6.26125C7.73698 6.26125 6.26131 6.26134 6.26131 6.26125V6.26134L12.0003 12.0003H12.0004C12.0004 12.0003 12.0004 10.9828 12.0004 10.5247Z" fill="#D80027"/>
<path d="M20.7811 8.90469L21.0401 9.70185H21.8783L21.2002 10.1945L21.4592 10.9916L20.7811 10.499L20.1029 10.9916L20.362 10.1945L19.6838 9.70185H20.522L20.7811 8.90469Z" fill="#D80027"/>
<path d="M17.7849 14.6436L18.1735 15.8393H19.4307L18.4135 16.5783L18.8021 17.774L17.7849 17.035L16.7678 17.774L17.1563 16.5783L16.1392 15.8393H17.3964L17.7849 14.6436Z" fill="#D80027"/>
<path d="M17.8985 5.25194L18.2223 6.24845H19.27L18.4223 6.86415L18.7461 7.86062L17.8985 7.24473L17.0509 7.86062L17.3747 6.86415L16.5271 6.24845H17.5747L17.8985 5.25194Z" fill="#D80027"/>
<path d="M15.0152 8.86996L15.4037 10.0657H16.661L15.6438 10.8047L16.0324 12.0004L15.0152 11.2614L13.998 12.0004L14.3866 10.8047L13.3694 10.0657H14.6266L15.0152 8.86996Z" fill="#D80027"/>
</g>
<defs>
<clipPath id="clip0_1333_1729">
<rect width="24" height="24" fill="white"/>
</clipPath>
</defs>
</svg>
