<svg width="24" height="24" viewBox="0 0 24 24" fill="none" xmlns="http://www.w3.org/2000/svg">
<g clip-path="url(#clip0_1333_1894)">
<path d="M12 24C18.6274 24 24 18.6274 24 12C24 5.37258 18.6274 0 12 0C5.37258 0 0 5.37258 0 12C0 18.6274 5.37258 24 12 24Z" fill="#F0F0F0"/>
<path d="M24 12C24 5.37258 18.6274 -4.3869e-05 12 -4.3869e-05C9.65248 -4.3869e-05 7.46276 0.674722 5.61316 1.83985L8.24346 2.95739L4.69563 4.4648L8.24346 5.97216L4.69563 7.47947L8.24346 8.98674L4.69563 10.4938L8.24346 12.0008L4.69563 13.5081L8.24346 15.0153L4.69563 16.5224L8.24346 18.0296L4.69563 19.5369L8.24346 21.044L5.61434 22.161C7.4637 23.3255 9.65295 24 12 24C18.6274 24 24 18.6273 24 12Z" fill="#751A46"/>
</g>
<defs>
<clipPath id="clip0_1333_1894">
<rect width="24" height="24" fill="white"/>
</clipPath>
</defs>
</svg>
