<svg width="24" height="24" viewBox="0 0 24 24" fill="none" xmlns="http://www.w3.org/2000/svg">
<g clip-path="url(#clip0_1333_2015)">
<path d="M12 24C18.6274 24 24 18.6274 24 12C24 5.37258 18.6274 0 12 0C5.37258 0 0 5.37258 0 12C0 18.6274 5.37258 24 12 24Z" fill="#F0F0F0"/>
<path d="M0 12C0 5.37262 5.37262 0 12 0C18.6274 0 24 5.37262 24 12" fill="#D80027"/>
<path d="M7.30396 6.26095C7.30396 4.51261 8.53269 3.05208 10.1735 2.69372C9.92132 2.63869 9.65971 2.60883 9.39088 2.60883C7.3738 2.60883 5.73871 4.24392 5.73871 6.261C5.73871 8.27808 7.3738 9.91317 9.39088 9.91317C9.65961 9.91317 9.92127 9.88331 10.1735 9.82823C8.53269 9.46987 7.30396 8.00934 7.30396 6.26095Z" fill="#F0F0F0"/>
<path d="M11.9997 2.86996L12.2587 3.66707H13.0969L12.4187 4.15978L12.6777 4.95689L11.9997 4.46428L11.3216 4.95689L11.5806 4.15978L10.9025 3.66707H11.7406L11.9997 2.86996Z" fill="#F0F0F0"/>
<path d="M9.96648 4.43463L10.2255 5.23179H11.0636L10.3855 5.72444L10.6446 6.52155L9.96648 6.02894L9.28829 6.52155L9.54737 5.72444L8.86923 5.23179H9.7074L9.96648 4.43463Z" fill="#F0F0F0"/>
<path d="M14.033 4.43463L14.2921 5.23179H15.1302L14.4521 5.72444L14.7112 6.52155L14.033 6.02894L13.3549 6.52155L13.6139 5.72444L12.9359 5.23179H13.774L14.033 4.43463Z" fill="#F0F0F0"/>
<path d="M13.2506 6.78333L13.5096 7.58048H14.3477L13.6696 8.07314L13.9287 8.87025L13.2506 8.37764L12.5725 8.87025L12.8315 8.07314L12.1534 7.58048H12.9915L13.2506 6.78333Z" fill="#F0F0F0"/>
<path d="M10.7489 6.78333L11.0079 7.58048H11.8461L11.1679 8.07314L11.427 8.87025L10.7489 8.37764L10.0707 8.87025L10.3298 8.07314L9.65167 7.58048H10.4898L10.7489 6.78333Z" fill="#F0F0F0"/>
</g>
<defs>
<clipPath id="clip0_1333_2015">
<rect width="24" height="24" fill="white"/>
</clipPath>
</defs>
</svg>
