<svg width="24" height="24" viewBox="0 0 24 24" fill="none" xmlns="http://www.w3.org/2000/svg">
<mask id="mask0_477_1257" style="mask-type:luminance" maskUnits="userSpaceOnUse" x="0" y="0" width="24" height="24">
<path d="M12 24C18.6274 24 24 18.6274 24 12C24 5.37258 18.6274 0 12 0C5.37258 0 0 5.37258 0 12C0 18.6274 5.37258 24 12 24Z" fill="white"/>
</mask>
<g mask="url(#mask0_477_1257)">
<path d="M30.1801 0H-6.17969V23.9965H30.1801V0Z" fill="#20419A"/>
<path d="M12.0006 19.2946C11.0165 19.2946 10.0606 19.1006 9.16108 18.7197C8.29336 18.3528 7.51381 17.8273 6.84362 17.1571C6.17343 16.4869 5.64785 15.7073 5.28101 14.8396C4.90006 13.9401 4.70605 12.9842 4.70605 12.0001C4.70605 11.016 4.90006 10.0601 5.28101 9.16059C5.64785 8.29287 6.17343 7.51333 6.84362 6.84313C7.51381 6.17294 8.29336 5.64737 9.16108 5.28052C10.0606 4.89957 11.0165 4.70557 12.0006 4.70557C12.9847 4.70557 13.9406 4.89957 14.8401 5.28052C15.7078 5.64737 16.4874 6.17294 17.1576 6.84313C17.8277 7.51333 18.3533 8.29287 18.7202 9.16059C19.1011 10.0601 19.2951 11.016 19.2951 12.0001C19.2951 12.9842 19.1011 13.9401 18.7202 14.8396C18.3533 15.7073 17.8277 16.4869 17.1576 17.1571C16.4874 17.8273 15.7078 18.3528 14.8401 18.7197C13.9406 19.1006 12.9847 19.2946 12.0006 19.2946Z" fill="white"/>
<path d="M12.0006 18.9313C15.8286 18.9313 18.9318 15.8281 18.9318 12.0001C18.9318 8.17206 15.8286 5.06885 12.0006 5.06885C8.17255 5.06885 5.06934 8.17206 5.06934 12.0001C5.06934 15.8281 8.17255 18.9313 12.0006 18.9313Z" fill="#F8E300"/>
<path d="M12.0006 5.06543C8.17339 5.06543 5.06934 8.16949 5.06934 11.9966C5.06934 15.8238 8.17339 18.9279 12.0006 18.9279C15.8277 18.9279 18.9318 15.8238 18.9318 11.9966C18.9318 8.16949 15.8277 5.06543 12.0006 5.06543ZM8.36387 15.6333C8.36387 14.1589 8.93883 12.7092 10.1346 11.9966C8.93883 11.2841 8.36387 9.83792 8.36387 8.35996H8.91061C8.91061 8.35996 8.91061 8.39171 8.91061 8.40935C8.91061 8.91023 9.00585 10.6668 10.3321 11.9931C9.00585 13.3194 8.91413 15.076 8.91061 15.5769C8.91061 15.5945 8.91061 15.6122 8.91061 15.6263H8.36387V15.6333ZM9.10814 15.6333C9.10814 15.6333 9.10814 15.6016 9.10814 15.5839C9.10814 15.0972 9.23159 13.3441 10.5297 12.0002C9.23159 10.6563 9.10814 8.90317 9.10814 8.4164C9.10814 8.39524 9.10814 8.38113 9.10814 8.36702H9.66193C9.66193 8.38465 9.66193 8.40582 9.66193 8.43051C9.66193 8.93845 9.75717 10.628 10.7272 12.0037C9.76069 13.3794 9.66193 15.069 9.66193 15.5769C9.66193 15.6016 9.66193 15.6192 9.66193 15.6404H9.10814V15.6333ZM10.4133 15.6333H9.85946C9.85946 15.6157 9.85946 15.5945 9.85946 15.5698C9.85946 15.076 9.90884 13.5451 10.8894 12.0425L10.9247 11.9966L10.8894 11.9508C9.90884 10.4481 9.85593 8.92081 9.85946 8.42345C9.85946 8.39876 9.85946 8.38113 9.85946 8.35996H10.4133V8.44815C10.4133 8.97725 10.4697 10.5928 11.1117 11.9966C10.4697 13.4005 10.4133 15.016 10.4133 15.5451V15.6333ZM10.6108 15.6333C10.6108 15.6086 10.6108 15.5804 10.6108 15.5451C10.6108 15.0266 10.6707 13.3723 11.3092 12.0108L11.3162 11.9966L11.3092 11.9825C10.6707 10.6175 10.6073 8.96666 10.6108 8.44815C10.6108 8.41287 10.6108 8.38465 10.6108 8.35996H11.1646C11.1646 8.40229 11.1646 8.45873 11.1646 8.5328C11.1646 9.12539 11.1998 10.6175 11.5103 11.9966C11.1963 13.3723 11.1646 14.8679 11.1646 15.457C11.1646 15.531 11.1646 15.5875 11.1646 15.6298H10.6108V15.6333ZM11.9053 15.6333H11.3586C11.3586 15.591 11.3586 15.5346 11.3586 15.4605C11.3586 14.875 11.3939 13.3794 11.7043 12.0213V12.0002V11.979C11.3939 10.621 11.3586 9.12539 11.3586 8.53986C11.3586 8.46578 11.3586 8.40935 11.3586 8.36702H11.9053V15.6369V15.6333ZM12.639 15.6333H12.0923V8.36349H12.639C12.639 8.40582 12.639 8.46226 12.639 8.53633C12.639 9.12187 12.6037 10.621 12.2933 11.9755V11.9966V12.0178C12.6037 13.3758 12.639 14.8714 12.639 15.457C12.639 15.531 12.639 15.5875 12.639 15.6298V15.6333ZM13.3903 15.5451C13.3903 15.5804 13.3903 15.6086 13.3903 15.6333H12.8365C12.8365 15.591 12.8365 15.5346 12.8365 15.4605C12.8365 14.8714 12.8048 13.3758 12.4909 12.0002C12.8048 10.621 12.8365 9.12892 12.8365 8.53633C12.8365 8.46226 12.8365 8.40582 12.8365 8.36349H13.3903C13.3903 8.38818 13.3903 8.4164 13.3903 8.45167C13.3903 8.97019 13.3304 10.621 12.6919 11.9861L12.6849 12.0002L12.6919 12.0143C13.3304 13.3794 13.3939 15.0302 13.3903 15.5487V15.5451ZM14.1416 15.5698C14.1416 15.5945 14.1416 15.6157 14.1416 15.6333H13.5879V15.5451C13.5879 15.016 13.5314 13.4005 12.8894 11.9966C13.5314 10.5928 13.5879 8.97725 13.5879 8.44815V8.35996H14.1416C14.1416 8.3776 14.1416 8.39876 14.1416 8.42345C14.1416 8.92081 14.0923 10.4481 13.1117 11.9508L13.0764 11.9966L13.1117 12.0425C14.0923 13.5451 14.1452 15.0725 14.1416 15.5698ZM14.893 15.6333H14.3392C14.3392 15.6157 14.3392 15.5945 14.3392 15.5698C14.3392 15.0619 14.2439 13.3723 13.2739 11.9966C14.2404 10.621 14.3392 8.93139 14.3392 8.42345C14.3392 8.39876 14.3392 8.38113 14.3392 8.35996H14.893C14.893 8.35996 14.893 8.39171 14.893 8.40935C14.893 8.89612 14.7695 10.6492 13.4715 11.9931C14.7695 13.337 14.893 15.0901 14.893 15.5769C14.893 15.5945 14.893 15.6122 14.893 15.6263V15.6333ZM15.6372 15.6333H15.0905C15.0905 15.6333 15.0905 15.6016 15.0905 15.5839C15.0905 15.0831 14.9953 13.3265 13.669 12.0002C14.9953 10.6704 15.087 8.91728 15.0905 8.4164C15.0905 8.39876 15.0905 8.38113 15.0905 8.36702H15.6372C15.6372 9.84144 15.0623 11.2912 13.8665 12.0037C15.0623 12.7162 15.6372 14.1624 15.6372 15.6404V15.6333Z" fill="#EC2D3A"/>
</g>
</svg>
