<svg width="24" height="24" viewBox="0 0 24 24" fill="none" xmlns="http://www.w3.org/2000/svg">
<g clip-path="url(#clip0_1333_2083)">
<path d="M12 24C18.6274 24 24 18.6274 24 12C24 5.37258 18.6274 0 12 0C5.37258 0 0 5.37258 0 12C0 18.6274 5.37258 24 12 24Z" fill="#F0F0F0"/>
<path d="M16.1741 11.9996C16.1741 13.0431 14.3054 15.6518 12.0002 15.6518C9.69501 15.6518 7.82629 13.0431 7.82629 11.9996C7.82629 9.69441 9.69501 7.82574 12.0002 7.82574C14.3054 7.82574 16.1741 9.69441 16.1741 11.9996Z" fill="#D80027"/>
<path d="M16.1741 11.9995C16.1741 14.3048 14.3054 16.1734 12.0002 16.1734C9.69501 16.1734 7.82629 14.3048 7.82629 11.9995" fill="#0052B4"/>
<path d="M17.5336 14.5826L16.4268 15.6894L17.1647 16.4272L18.2714 15.3204L17.5336 14.5826Z" fill="black"/>
<path d="M15.6884 16.4268L14.5817 17.5336L15.3195 18.2714L16.4263 17.1647L15.6884 16.4268Z" fill="black"/>
<path d="M19.7471 16.7947L18.6403 17.9015L19.3782 18.6393L20.4849 17.5326L19.7471 16.7947Z" fill="black"/>
<path d="M17.903 18.6409L16.7963 19.7477L17.5341 20.4855L18.6409 19.3788L17.903 18.6409Z" fill="black"/>
<path d="M18.6406 15.6896L17.5339 16.7964L18.2717 17.5342L19.3785 16.4275L18.6406 15.6896Z" fill="black"/>
<path d="M16.796 17.5339L15.6892 18.6406L16.4271 19.3785L17.5338 18.2717L16.796 17.5339Z" fill="black"/>
<path d="M15.6893 5.35816L18.6407 8.30952L19.3785 7.57167L16.4272 4.62031L15.6893 5.35816Z" fill="black"/>
<path d="M14.5828 6.46617L15.6895 7.57292L16.4273 6.83511L15.3206 5.72835L14.5828 6.46617Z" fill="black"/>
<path d="M16.4274 8.31L17.5341 9.41676L18.272 8.67894L17.1652 7.57219L16.4274 8.31Z" fill="black"/>
<path d="M16.7951 4.25228L17.9019 5.35903L18.6397 4.62118L17.5329 3.51443L16.7951 4.25228Z" fill="black"/>
<path d="M18.6409 6.09767L19.7477 7.20443L20.4855 6.46658L19.3787 5.35983L18.6409 6.09767Z" fill="black"/>
<path d="M7.20342 19.7479L4.25206 16.7966L3.51421 17.5344L6.46557 20.4858L7.20342 19.7479Z" fill="black"/>
<path d="M8.31067 18.6399L7.20392 17.5332L6.4661 18.271L7.57286 19.3778L8.31067 18.6399Z" fill="black"/>
<path d="M6.46587 16.7959L5.35912 15.6892L4.62127 16.427L5.72802 17.5338L6.46587 16.7959Z" fill="black"/>
<path d="M9.41751 17.5337L6.46616 14.5823L5.72831 15.3202L8.67967 18.2715L9.41751 17.5337Z" fill="black"/>
<path d="M4.25265 7.20471L7.20401 4.25335L6.46616 3.51551L3.5148 6.46686L4.25265 7.20471Z" fill="black"/>
<path d="M5.35864 8.30981L8.31 5.35845L7.57215 4.6206L4.62079 7.57196L5.35864 8.30981Z" fill="black"/>
<path d="M6.46637 9.41704L9.41772 6.46568L8.67991 5.72787L5.72855 8.67923L6.46637 9.41704Z" fill="black"/>
</g>
<defs>
<clipPath id="clip0_1333_2083">
<rect width="24" height="24" fill="white"/>
</clipPath>
</defs>
</svg>
