<svg width="24" height="24" viewBox="0 0 24 24" fill="none" xmlns="http://www.w3.org/2000/svg">
<g clip-path="url(#clip0_1333_2112)">
<path d="M-1.52588e-05 11.9993C-1.52588e-05 13.4671 0.264032 14.8732 0.746375 16.1732L12 17.2166L23.2536 16.1732C23.7359 14.8732 24 13.4671 24 11.9993C24 10.5314 23.7359 9.12537 23.2536 7.82539L12 6.78191L0.746375 7.82539C0.264032 9.12537 -1.52588e-05 10.5314 -1.52588e-05 11.9993Z" fill="#FFDA44"/>
<path d="M23.2551 7.82574C21.5596 3.25618 17.1611 -0.000366211 12.0015 -0.000366211C6.84191 -0.000366211 2.44339 3.25618 0.747879 7.82574H23.2551Z" fill="#D80027"/>
<path d="M0.746902 16.174C2.44242 20.7435 6.84093 24.0001 12.0005 24.0001C17.1601 24.0001 21.5586 20.7435 23.2541 16.174H0.746902Z" fill="#D80027"/>
</g>
<defs>
<clipPath id="clip0_1333_2112">
<rect width="24" height="24" fill="white"/>
</clipPath>
</defs>
</svg>
