<svg width="24" height="24" viewBox="0 0 24 24" fill="none" xmlns="http://www.w3.org/2000/svg">
<g clip-path="url(#clip0_1333_2214)">
<path d="M12 24C18.6274 24 24 18.6274 24 12C24 5.37258 18.6274 0 12 0C5.37258 0 0 5.37258 0 12C0 18.6274 5.37258 24 12 24Z" fill="#F0F0F0"/>
<path d="M23.2539 7.82596H0.746726C0.264336 9.12594 0.000335693 10.532 0.000335693 11.9998C0.000335693 13.4677 0.264336 14.8738 0.746726 16.1737H23.254C23.7363 14.8738 24.0003 13.4677 24.0003 11.9998C24.0003 10.532 23.7363 9.12594 23.2539 7.82596Z" fill="#0052B4"/>
<path d="M12.0013 -0.000579834C8.36426 -0.000579834 5.10536 1.61773 2.90472 4.17331H21.0979C18.8973 1.61773 15.6384 -0.000579834 12.0013 -0.000579834Z" fill="#D80027"/>
<path d="M21.097 19.8261H2.90375C5.10439 22.3817 8.36328 24 12.0004 24C15.6374 24 18.8963 22.3817 21.097 19.8261Z" fill="#D80027"/>
</g>
<defs>
<clipPath id="clip0_1333_2214">
<rect width="24" height="24" fill="white"/>
</clipPath>
</defs>
</svg>
