<svg width="24" height="24" viewBox="0 0 24 24" fill="none" xmlns="http://www.w3.org/2000/svg">
<g clip-path="url(#clip0_1333_2253)">
<path d="M12 24C18.6274 24 24 18.6274 24 12C24 5.37258 18.6274 0 12 0C5.37258 0 0 5.37258 0 12C0 18.6274 5.37258 24 12 24Z" fill="#D80027"/>
<path d="M11.5087 9.80505L12.4934 11.1618L14.0879 10.6448L13.1017 12.0004L14.0862 13.3572L12.4922 12.8382L11.5061 14.1938L11.5071 12.5175L9.91312 11.9985L11.5077 11.4815L11.5087 9.80505Z" fill="#F0F0F0"/>
<path d="M8.8218 15.3906C6.94886 15.3906 5.43049 13.8722 5.43049 11.9992C5.43049 10.1263 6.94886 8.60793 8.8218 8.60793C9.40577 8.60793 9.95524 8.75563 10.435 9.01555C9.68238 8.27952 8.65315 7.8253 7.51746 7.8253C5.21224 7.8253 3.34357 9.69402 3.34357 11.9992C3.34357 14.3044 5.21229 16.1731 7.51746 16.1731C8.65324 16.1731 9.68243 15.7188 10.435 14.9828C9.95524 15.2428 9.40577 15.3906 8.8218 15.3906Z" fill="#F0F0F0"/>
</g>
<defs>
<clipPath id="clip0_1333_2253">
<rect width="24" height="24" fill="white"/>
</clipPath>
</defs>
</svg>
