<svg width="24" height="24" viewBox="0 0 24 24" fill="none" xmlns="http://www.w3.org/2000/svg">
<g clip-path="url(#clip0_1333_2333)">
<path d="M12 24C18.6274 24 24 18.6274 24 12C24 5.37258 18.6274 0 12 0C5.37258 0 0 5.37258 0 12C0 18.6274 5.37258 24 12 24Z" fill="#F0F0F0"/>
<path d="M6.78262 16.1729L7.82611 23.2527C9.12604 23.7351 10.5322 23.999 12 23.999C17.1595 23.999 21.5581 20.7425 23.2536 16.1729H6.78262Z" fill="black"/>
<path d="M6.78262 7.82661L7.82611 0.7468C9.12604 0.26441 10.5322 0.00050354 12 0.00050354C17.1595 0.00050354 21.5581 3.257 23.2536 7.82661H6.78262Z" fill="#6DA544"/>
<path d="M0.000396729 12C0.000396729 17.1596 3.25694 21.5581 7.82651 23.2536V0.746384C3.25694 2.4419 0.000396729 6.84042 0.000396729 12Z" fill="#A2001D"/>
</g>
<defs>
<clipPath id="clip0_1333_2333">
<rect width="24" height="24" fill="white"/>
</clipPath>
</defs>
</svg>
